<svg xmlns="http://www.w3.org/2000/svg" width="500" height="500" viewBox="0 0 500 500" version="1.1"><path d="M 17.360 9 C 17.360 14.225, 17.529 16.363, 17.735 13.750 C 17.941 11.137, 17.941 6.862, 17.735 4.250 C 17.529 1.637, 17.360 3.775, 17.360 9 M 80 8.983 L 80 17.965 55.250 18.251 L 30.500 18.537 55.750 18.768 L 81 19 81 9.500 C 81 4.275, 80.775 0, 80.500 0 C 80.225 0, 80 4.042, 80 8.983 M 91 15.191 C 91 29.099, 90.869 30.218, 89.445 28.441 C 87.944 26.568, 87.927 26.577, 88.950 28.694 C 91.496 33.962, 92 31.876, 92 16.059 C 92 7.227, 91.775 0, 91.500 0 C 91.225 0, 91 6.836, 91 15.191 M 94.981 18.952 L 94.500 38.405 97.264 42.759 L 100.028 47.114 99.764 78.748 L 99.500 110.382 91.227 100.764 L 82.953 91.146 83.025 54.955 C 83.064 35.049, 82.850 18.517, 82.548 18.215 C 82.247 17.913, 82 34.167, 82 54.333 L 82 91 44.512 91 L 7.025 91 6.750 54.750 L 6.474 18.500 6.237 54.687 L 6 90.873 2.750 91.277 C 0.962 91.498, 18.016 91.752, 40.646 91.840 L 81.792 92 86.812 97.250 C 89.572 100.137, 93.653 104.723, 95.880 107.439 L 99.929 112.378 97.965 115.557 C 96.254 118.325, 95.990 120.658, 95.919 133.618 L 95.838 148.500 93.794 143.750 L 91.750 139 86.625 139.180 L 81.500 139.360 86.160 139.731 C 90.425 140.071, 90.964 140.416, 92.511 143.801 C 97.325 154.339, 112.359 183.974, 112.712 183.622 C 112.936 183.398, 109.492 175.971, 105.060 167.119 L 97 151.024 97.007 134.762 C 97.012 120.216, 97.223 118.183, 99 115.500 C 100.882 112.658, 100.987 110.747, 100.993 79.154 C 101 46.170, 100.976 45.775, 98.750 42.654 C 96.647 39.706, 96.466 38.196, 95.981 19.500 L 95.462 -0.500 94.981 18.952 M 408.100 15.908 C 408.173 24.657, 407.885 32.377, 407.462 33.062 C 406.965 33.866, 407.100 34.056, 407.840 33.599 C 408.472 33.208, 409.487 31.959, 410.094 30.824 C 410.702 29.688, 410.776 29.020, 410.259 29.340 C 409.679 29.698, 409.499 24.177, 409.789 14.961 C 410.131 4.109, 409.945 0, 409.114 0 C 408.295 0, 408.006 4.542, 408.100 15.908 M 419.355 8.500 C 419.352 13.450, 419.521 15.601, 419.731 13.280 C 419.940 10.959, 419.943 6.909, 419.736 4.280 C 419.530 1.651, 419.358 3.550, 419.355 8.500 M 482.160 8.691 C 482.072 13.746, 482.337 18.092, 482.750 18.349 C 483.163 18.605, 483.376 15.819, 483.224 12.158 C 482.743 0.558, 482.325 -0.803, 482.160 8.691 M 41.184 4.750 L 41.500 7.500 58.426 7.775 C 76.049 8.061, 76.949 7.866, 76.985 3.750 C 76.999 2.147, 75.479 2, 58.934 2 L 40.867 2 41.184 4.750 M 416.976 18.750 C 416.964 19.163, 416.974 35.847, 417 55.827 L 417.046 92.154 412.682 96.827 C 410.281 99.397, 406.457 103.525, 404.183 106 L 400.050 110.500 400.025 79.111 L 400 47.721 403 42.846 C 407.188 36.039, 406.762 34.667, 402.450 41.075 L 398.899 46.351 398.974 79.191 C 399.043 110.043, 399.167 112.226, 401.020 115.265 C 402.775 118.144, 402.993 120.342, 402.996 135.229 L 403 151.958 395 167.878 C 390.600 176.634, 387.032 184.181, 387.071 184.649 C 387.110 185.117, 392.059 175.643, 398.068 163.597 L 408.993 141.693 409.250 282.597 L 409.507 423.500 409.753 281.250 C 409.892 201.558, 409.619 139, 409.134 139 C 408.658 139, 407.337 141.363, 406.199 144.250 L 404.130 149.500 404.060 134 C 404 120.757, 403.721 118.063, 402.142 115.500 L 400.295 112.500 404.326 107.500 C 406.542 104.750, 410.413 100.345, 412.928 97.710 L 417.500 92.920 418.027 116.710 L 418.555 140.500 418.777 116.261 L 419 92.022 459.750 91.750 L 500.500 91.477 459.250 91.238 L 418 91 418 55.070 L 418 19.139 420.250 18.706 C 422.179 18.334, 422.108 18.253, 419.750 18.136 C 418.238 18.061, 416.989 18.337, 416.976 18.750 M 19 53.471 L 19 55.942 34.500 55.833 L 50 55.724 50 53.362 L 50 51 34.500 51 L 19 51 19 53.471 M 387.434 115.500 C 387.456 159.780, 387.509 161.362, 387.979 131.924 L 388.500 99.348 392.500 94.583 C 396.724 89.550, 397.936 86.704, 397.168 83.623 C 396.772 82.033, 396.111 82.403, 392.850 86.043 C 390.733 88.406, 388.908 90.826, 388.796 91.420 C 388.684 92.014, 388.325 86.650, 388 79.500 C 387.675 72.350, 387.420 88.550, 387.434 115.500 M 450 75.500 L 450 78 465.500 78 L 481 78 481 75.500 L 481 73 465.500 73 L 450 73 450 75.500 M 103 82.543 C 103 85.464, 110.624 96.351, 112.052 95.468 C 112.573 95.146, 113 94.324, 113 93.641 C 113 92.372, 104.373 80, 103.489 80 C 103.220 80, 103 81.144, 103 82.543 M 10.667 113.667 C 9.431 114.903, 9.988 117.781, 11.582 118.393 C 13.644 119.184, 34.409 119.158, 39.250 118.358 C 42.354 117.845, 43 117.330, 43 115.369 L 43 113 27.167 113 C 18.458 113, 11.033 113.300, 10.667 113.667 M 162.001 123.250 C 162.002 124.104, 160.337 124.470, 156.751 124.405 C 151.582 124.311, 151.573 124.316, 156.199 124.705 C 159.772 125.006, 161.045 125.568, 161.516 127.052 C 161.857 128.124, 163.117 129.507, 164.318 130.124 C 166.485 131.239, 166.485 131.232, 164.242 129.077 C 162.604 127.503, 162.154 126.235, 162.601 124.454 C 162.940 123.104, 162.943 122, 162.608 122 C 162.274 122, 162.001 122.563, 162.001 123.250 M 343.750 123.805 C 340.914 123.987, 338.994 124.591, 338.985 125.305 C 338.975 126.029, 338.587 125.909, 338 125 C 337.273 123.875, 337.030 124.375, 337.030 127 C 337.029 130.471, 337.040 130.479, 338.290 128 C 339.449 125.699, 340.225 125.460, 348.025 125 C 354.366 124.626, 355.493 124.374, 352.500 124 C 350.300 123.725, 346.363 123.637, 343.750 123.805 M 168.428 159 C 168.428 171.375, 168.571 176.438, 168.747 170.250 C 168.922 164.063, 168.922 153.938, 168.747 147.750 C 168.571 141.563, 168.428 146.625, 168.428 159 M 148.946 143.748 C 154.141 143.931, 158.989 144.576, 159.719 145.182 C 160.751 146.038, 160.906 145.918, 160.416 144.641 C 159.882 143.249, 158.248 143.031, 149.643 143.208 L 139.500 143.415 148.946 143.748 M 339.607 144.582 C 338.634 147.116, 338.960 147.636, 340.364 145.788 C 341.403 144.420, 343.656 144.010, 351.582 143.748 L 361.500 143.419 350.857 143.209 C 341.946 143.034, 340.115 143.257, 339.607 144.582 M 335.212 186 C 334.997 214.963, 334.760 219.153, 333.039 224.500 L 331.108 230.500 331.038 219.500 C 330.994 212.403, 330.643 209.015, 330.051 209.952 C 329.545 210.751, 329.307 211.688, 329.521 212.034 C 329.735 212.380, 329.998 218.004, 330.106 224.531 C 330.243 232.751, 329.949 236.517, 329.151 236.783 C 328.518 236.994, 328.033 238.817, 328.073 240.833 C 328.128 243.659, 328.934 241.863, 331.583 233 C 333.474 226.675, 335.206 221.050, 335.432 220.500 C 335.657 219.950, 335.878 233.589, 335.921 250.809 C 335.972 271.007, 335.652 281.903, 335.021 281.513 C 333.826 280.774, 330 282.697, 330 284.035 C 330 285.473, 334.962 285.203, 335.235 283.750 C 335.364 283.063, 335.708 303.200, 336 328.500 C 336.482 370.292, 336.552 367.298, 336.765 295.779 L 337 217.058 350.250 216.747 L 363.500 216.437 349.750 216.218 L 336 216 336 204.066 L 336 192.133 338.750 191.716 L 341.500 191.300 338.772 191.150 L 336.044 191 335.749 172.250 C 335.554 159.890, 335.371 164.577, 335.212 186 M 164.217 185.222 L 164 215.944 150.250 216.252 L 136.500 216.561 150.250 216.781 L 164 217 164.241 295.250 L 164.481 373.500 164.991 297.500 C 165.271 255.700, 165.773 222.175, 166.106 223 C 166.440 223.825, 166.464 223.600, 166.159 222.500 C 165.855 221.400, 165.342 205.650, 165.020 187.500 L 164.435 154.500 164.217 185.222 M 331.232 158 C 331.232 159.925, 331.438 160.713, 331.689 159.750 C 331.941 158.787, 331.941 157.213, 331.689 156.250 C 331.438 155.287, 331.232 156.075, 331.232 158 M 346 158.500 C 346 159.690, 347.444 160, 353 160 C 358.556 160, 360 159.690, 360 158.500 C 360 157.310, 358.556 157, 353 157 C 347.444 157, 346 157.310, 346 158.500 M 470.667 159.667 C 470.300 160.033, 470 161.383, 470 162.667 L 470 165 485 165 L 500 165 500 162 L 500 159 485.667 159 C 477.783 159, 471.033 159.300, 470.667 159.667 M 331.397 178 C 331.397 185.975, 331.553 189.238, 331.743 185.250 C 331.932 181.262, 331.932 174.738, 331.743 170.750 C 331.553 166.762, 331.397 170.025, 331.397 178 M 90 295 C 90 365.033, 90.224 422.109, 90.497 421.836 C 91.156 421.177, 91.169 168.836, 90.510 168.177 C 90.230 167.896, 90 224.967, 90 295 M 17.193 178.250 L 17.385 185.500 17.743 179.169 C 18.069 173.386, 18.247 172.951, 19.800 174.152 C 21.082 175.142, 21.031 174.916, 19.595 173.233 C 18.547 172.005, 17.535 171, 17.345 171 C 17.155 171, 17.087 174.262, 17.193 178.250 M 482.415 172.362 C 482.127 173.111, 482.035 176.374, 482.211 179.612 L 482.530 185.500 483.015 178.248 C 483.502 170.971, 483.385 169.832, 482.415 172.362 M 144.250 183.641 C 141.014 185.002, 143.692 186, 150.583 186 C 156.203 186, 158.060 185.676, 157.754 184.750 C 157.334 183.477, 146.713 182.604, 144.250 183.641 M 465 185.500 C 463.901 186.824, 465.876 187, 481.819 187 C 491.753 187, 500.091 186.662, 500.347 186.250 C 500.603 185.838, 492.940 185.633, 483.319 185.795 C 471.336 185.998, 466.029 185.761, 466.472 185.045 C 467.444 183.473, 466.420 183.789, 465 185.500 M 4.776 186.733 C 7.128 186.945, 10.728 186.942, 12.776 186.727 C 14.824 186.512, 12.900 186.339, 8.500 186.343 C 4.100 186.346, 2.424 186.522, 4.776 186.733 M 21.784 186.738 C 24.689 186.941, 29.189 186.939, 31.784 186.734 C 34.378 186.528, 32 186.363, 26.500 186.365 C 21 186.368, 18.878 186.536, 21.784 186.738 M 139 191.173 C 139 191.628, 140.350 192, 142 192 C 143.650 192, 145 191.826, 145 191.613 C 145 191.401, 143.650 191.029, 142 190.787 C 140.350 190.545, 139 190.718, 139 191.173 M 191.667 193.667 C 190.734 194.600, 190.964 202.089, 192 204.500 C 192.598 205.892, 192.881 204.448, 192.930 199.750 C 193 192.964, 192.892 192.441, 191.667 193.667 M 308.310 198.500 C 308.315 201.800, 308.502 203.029, 308.725 201.232 C 308.947 199.435, 308.943 196.735, 308.715 195.232 C 308.486 193.729, 308.304 195.200, 308.310 198.500 M 140 198.369 C 140 199.722, 141.195 200, 147 200 C 151 200, 154 199.571, 154 199 C 154 198.450, 152.537 197.995, 150.750 197.989 C 148.963 197.983, 145.813 197.699, 143.750 197.358 C 140.696 196.853, 140 197.041, 140 198.369 M 445.437 201.250 L 442.500 204.500 445.750 201.563 C 447.538 199.948, 449 198.485, 449 198.313 C 449 197.540, 448.175 198.221, 445.437 201.250 M 379.767 254.250 C 379.620 284.637, 379.737 320.750, 380.026 334.500 C 380.317 348.321, 380.653 323.615, 380.776 279.250 C 380.899 235.113, 380.782 199, 380.517 199 C 380.251 199, 379.913 223.863, 379.767 254.250 M 0 204 L 0 207 14 207 L 28 207 28 204 L 28 201 14 201 L 0 201 0 204 M 473 204 L 473 207 486.500 207 L 500 207 500 204 L 500 201 486.500 201 L 473 201 473 204 M 169.120 218 C 168.950 225.508, 168.561 228.806, 168 227.500 C 167.527 226.400, 167.109 225.951, 167.070 226.503 C 166.962 228.045, 170.846 241.188, 171.616 241.885 C 171.989 242.223, 171.934 241.375, 171.491 240 C 171.049 238.625, 170.393 230.525, 170.033 222 L 169.380 206.500 169.120 218 M 434.162 210.328 C 431.984 212.646, 431.976 212.811, 432.250 249.078 L 432.526 285.500 432.763 249.064 C 432.996 213.192, 433.034 212.593, 435.174 210.314 C 436.370 209.042, 437.124 208, 436.849 208 C 436.574 208, 435.364 209.048, 434.162 210.328 M 67.461 256.500 C 67.461 281.800, 67.591 292.007, 67.749 279.181 C 67.908 266.356, 67.907 245.656, 67.749 233.181 C 67.590 220.707, 67.461 231.200, 67.461 256.500 M 187.079 214.684 C 187.021 216.298, 186.283 216.950, 184.250 217.184 C 181.778 217.468, 181.491 217.905, 181.414 221.500 L 181.329 225.500 181.722 221.750 C 182.059 218.533, 182.467 218, 184.589 218 C 187.141 218, 188.578 216.035, 187.673 213.783 C 187.390 213.077, 187.122 213.483, 187.079 214.684 M 171.365 225.500 C 171.368 231, 171.536 233.122, 171.738 230.216 C 171.941 227.311, 171.939 222.811, 171.734 220.216 C 171.528 217.622, 171.363 220, 171.365 225.500 M 93.418 220.352 C 92.207 223.509, 93.653 225.532, 99.010 228.170 C 106.052 231.638, 107.215 231.674, 106.816 228.411 C 106.403 225.024, 94.397 217.803, 93.418 220.352 M 353 226.500 C 353 227.679, 354.389 228, 359.500 228 C 364.611 228, 366 227.679, 366 226.500 C 366 225.321, 364.611 225, 359.500 225 C 354.389 225, 353 225.321, 353 226.500 M 186.974 227.746 C 190.535 227.945, 193.790 228.645, 194.209 229.304 C 194.723 230.113, 194.974 229.934, 194.985 228.750 C 194.998 227.225, 194.067 227.025, 187.750 227.193 L 180.500 227.385 186.974 227.746 M 306.015 228.750 C 306.026 229.930, 306.278 230.111, 306.789 229.307 C 307.207 228.650, 310.237 227.948, 313.524 227.746 L 319.500 227.378 312.750 227.189 C 306.911 227.026, 306.002 227.236, 306.015 228.750 M 134 234.500 C 134 235.708, 135.556 236, 142 236 C 148.444 236, 150 235.708, 150 234.500 C 150 233.292, 148.444 233, 142 233 C 135.556 233, 134 233.292, 134 234.500 M 308 234 C 308 234.948, 309.088 235.250, 312.500 235.250 C 316.525 235.250, 318 234.915, 318 234 C 318 233.450, 315.750 233, 313 233 C 310.250 233, 308 233.450, 308 234 M 303.360 243 C 303.360 248.225, 303.529 250.363, 303.735 247.750 C 303.941 245.137, 303.941 240.863, 303.735 238.250 C 303.529 235.637, 303.360 237.775, 303.360 243 M 197.227 246.212 L 197 257.925 187.750 258.255 L 178.500 258.585 187.750 258.792 C 196.826 258.996, 197 259.046, 197 261.434 C 197 263.345, 196.410 263.935, 194.250 264.184 C 192.738 264.358, 191.500 264.950, 191.500 265.500 C 191.500 266.050, 192.738 266.642, 194.250 266.816 C 198.102 267.260, 197.738 269.782, 193.750 270.277 L 190.500 270.680 193.556 270.840 C 196.319 270.985, 196.816 271.551, 198.740 276.750 L 200.868 282.500 200.784 274.500 C 200.738 270.100, 200.513 267.738, 200.284 269.250 C 200.055 270.762, 199.457 272, 198.956 272 C 198.450 272, 197.913 263.654, 197.749 253.250 C 197.548 240.508, 197.381 238.253, 197.227 246.212 M 47.003 241.250 L 47.007 245.500 53.753 248.258 C 62.777 251.946, 63.180 251.882, 62.807 246.823 C 62.502 242.668, 62.462 242.630, 55.598 239.823 C 51.802 238.270, 48.314 237, 47.848 237 C 47.382 237, 47.001 238.912, 47.003 241.250 M 185.500 240 C 185.122 240.612, 186.676 241, 189.500 241 C 192.324 241, 193.878 240.612, 193.500 240 C 193.160 239.450, 191.360 239, 189.500 239 C 187.640 239, 185.840 239.450, 185.500 240 M 310.192 241.075 C 310.389 241.666, 310.876 242.116, 311.275 242.075 C 311.674 242.034, 313.602 242, 315.559 242 C 317.677 242, 318.868 241.595, 318.500 241 C 317.651 239.627, 309.733 239.698, 310.192 241.075 M 444.750 243.229 L 438 246.286 438 250.643 C 438 253.039, 438.254 255, 438.566 255 C 438.877 255, 442.505 253.441, 446.628 251.536 L 454.125 248.072 453.813 244.363 C 453.641 242.324, 453.050 240.546, 452.500 240.414 C 451.950 240.281, 448.462 241.548, 444.750 243.229 M 4.250 241.735 C 6.862 241.941, 11.137 241.941, 13.750 241.735 C 16.363 241.529, 14.225 241.360, 9 241.360 C 3.775 241.360, 1.637 241.529, 4.250 241.735 M 479.768 241.725 C 481.565 241.947, 484.265 241.943, 485.768 241.715 C 487.271 241.486, 485.800 241.304, 482.500 241.310 C 479.200 241.315, 477.971 241.502, 479.768 241.725 M 493.264 241.718 C 494.784 241.947, 497.034 241.941, 498.264 241.704 C 499.494 241.467, 498.250 241.279, 495.500 241.286 C 492.750 241.294, 491.744 241.488, 493.264 241.718 M 300.995 254.704 C 300.723 261.416, 300.853 266.553, 301.284 266.120 C 301.716 265.686, 301.938 260.194, 301.779 253.916 L 301.490 242.500 300.995 254.704 M 402 245.403 C 395.148 247.738, 393 249.232, 393 251.661 C 393 254.535, 393.773 254.555, 401.147 251.866 C 406.426 249.941, 407 249.451, 407 246.866 C 407 243.706, 406.989 243.702, 402 245.403 M 119 271 C 119 284.933, 119.253 296.080, 119.562 295.771 C 120.319 295.014, 120.351 247.018, 119.595 246.262 C 119.268 245.934, 119 257.067, 119 271 M 182 255 C 182 255.550, 184.250 256, 187 256 C 189.750 256, 192 255.550, 192 255 C 192 254.450, 189.750 254, 187 254 C 184.250 254, 182 254.450, 182 255 M 199.272 262 C 199.272 264.475, 199.467 265.488, 199.706 264.250 C 199.944 263.012, 199.944 260.988, 199.706 259.750 C 199.467 258.512, 199.272 259.525, 199.272 262 M 212.017 258.550 C 212.008 259.127, 212.511 260.111, 213.136 260.736 C 213.944 261.544, 214.285 273.362, 214.318 301.686 C 214.359 336.627, 214.440 338.685, 214.980 318.500 C 215.318 305.850, 215.686 295.387, 215.797 295.250 C 215.909 295.113, 216.873 295, 217.941 295 C 219.009 295, 220.160 294.550, 220.500 294 C 220.848 293.437, 220.048 293, 218.671 293 L 216.223 293 216.187 278.464 C 216.155 265.535, 215.924 263.573, 214.092 260.714 C 212.960 258.946, 212.026 257.973, 212.017 258.550 M 308.364 259.506 C 312.145 261.478, 318.604 261.474, 319.362 259.500 C 319.841 258.252, 318.726 258.001, 312.719 258.006 C 305.702 258.012, 305.580 258.054, 308.364 259.506 M 325.847 265.750 C 325.656 268.363, 325.762 273.200, 326.082 276.500 C 326.564 281.471, 326.693 280.657, 326.832 271.750 C 327.005 260.678, 326.459 257.353, 325.847 265.750 M 6.206 265.741 C 9.895 265.932, 16.195 265.934, 20.206 265.743 C 24.218 265.553, 21.200 265.396, 13.500 265.395 C 5.800 265.393, 2.518 265.549, 6.206 265.741 M 479.206 265.741 C 482.895 265.932, 489.195 265.934, 493.206 265.743 C 497.218 265.553, 494.200 265.396, 486.500 265.395 C 478.800 265.393, 475.518 265.549, 479.206 265.741 M 445.561 268.585 C 441.763 269.913, 438.508 271, 438.328 271 C 438.148 271, 438 272.800, 438 275 C 438 277.200, 438.337 279.001, 438.750 279.003 C 439.163 279.005, 442.762 278.039, 446.750 276.857 L 454 274.709 454 270.913 C 454 268.826, 453.655 266.905, 453.233 266.644 C 452.812 266.384, 449.359 267.257, 445.561 268.585 M 144.006 267.682 C 144.010 268.132, 145.360 269.267, 147.006 270.203 C 150.859 272.396, 150.855 271.745, 147 269 C 145.350 267.825, 144.003 267.232, 144.006 267.682 M 204.339 275.500 C 204.363 281.055, 204.516 282.323, 204.737 278.812 C 205.072 273.510, 205.280 273.096, 207.798 272.712 L 210.500 272.300 207.816 272.150 C 205.705 272.032, 205.044 271.413, 204.716 269.250 C 204.487 267.738, 204.317 270.550, 204.339 275.500 M 348.695 272.522 L 342 278.044 342.232 303.272 L 342.463 328.500 342.750 303.581 C 342.939 287.051, 343.413 278.207, 344.156 277.312 C 344.773 276.569, 347.959 273.945, 351.238 271.481 C 354.516 269.016, 356.791 267, 356.294 267 C 355.796 267, 352.377 269.485, 348.695 272.522 M 285.542 273.250 C 285.165 275.038, 284.622 278.613, 284.336 281.195 C 283.977 284.423, 283.297 286.026, 282.157 286.329 C 280.693 286.717, 280.703 286.781, 282.250 286.884 C 283.295 286.953, 284 287.806, 284 289 C 284 290.100, 284.368 291, 284.819 291 C 285.269 291, 285.754 297.860, 285.896 306.244 C 286.038 314.627, 286.344 321.677, 286.577 321.910 C 286.810 322.143, 287 310.558, 287 296.167 C 287 281.775, 286.826 270, 286.613 270 C 286.401 270, 285.919 271.462, 285.542 273.250 M 301.978 273.567 C 301.330 275.529, 301.071 277.404, 301.400 277.734 C 301.730 278.063, 302.045 277.471, 302.100 276.417 C 302.178 274.904, 302.379 275.027, 303.050 277 C 303.782 279.153, 303.875 278.973, 303.721 275.701 C 303.607 273.276, 304.077 271.563, 305.021 270.966 C 306.282 270.168, 306.254 270.028, 304.828 270.015 C 303.790 270.006, 302.708 271.355, 301.978 273.567 M 314.750 270.723 C 316.538 270.945, 319.462 270.945, 321.250 270.723 C 323.038 270.502, 321.575 270.320, 318 270.320 C 314.425 270.320, 312.962 270.502, 314.750 270.723 M 356.355 280.500 C 356.352 285.450, 356.521 287.601, 356.731 285.280 C 356.940 282.959, 356.943 278.909, 356.736 276.280 C 356.530 273.651, 356.358 275.550, 356.355 280.500 M 176 274.443 C 176 275.626, 177.101 276, 180.583 276 C 186.485 276, 186.139 273.632, 180.172 273.193 C 176.930 272.954, 176 273.232, 176 274.443 M 291 276 C 291 276.550, 292.125 277, 293.500 277 C 294.875 277, 296 276.550, 296 276 C 296 275.450, 294.875 275, 293.500 275 C 292.125 275, 291 275.450, 291 276 M 206 278 C 206 278.550, 207.125 279, 208.500 279 C 209.875 279, 211 278.550, 211 278 C 211 277.450, 209.875 277, 208.500 277 C 207.125 277, 206 277.450, 206 278 M 315 278 C 315 278.550, 317.025 279, 319.500 279 C 321.975 279, 324 278.550, 324 278 C 324 277.450, 321.975 277, 319.500 277 C 317.025 277, 315 277.450, 315 278 M 144.272 282 C 144.272 284.475, 144.467 285.488, 144.706 284.250 C 144.944 283.012, 144.944 280.988, 144.706 279.750 C 144.467 278.512, 144.272 279.525, 144.272 282 M 157.382 289.500 C 157.384 296.100, 157.546 298.670, 157.741 295.211 C 157.937 291.752, 157.936 286.352, 157.738 283.211 C 157.540 280.070, 157.380 282.900, 157.382 289.500 M 278 286.559 C 278 291.026, 277.615 293.880, 277.059 293.537 C 276.503 293.193, 276.346 294.357, 276.675 296.382 C 277.126 299.162, 276.878 299.899, 275.365 300.288 C 273.716 300.713, 273.702 300.781, 275.250 300.884 C 276.719 300.981, 277.020 302.084, 277.124 307.750 C 277.505 328.446, 278.584 325.770, 278.736 303.750 C 278.831 290.137, 278.704 279, 278.454 279 C 278.204 279, 278 282.402, 278 286.559 M 47 283.979 C 47 288.688, 48.388 289.558, 57.630 290.644 L 63.138 291.292 62.819 287.434 C 62.525 283.881, 62.184 283.486, 58.500 282.436 C 56.300 281.808, 52.813 280.983, 50.750 280.602 L 47 279.909 47 283.979 M 166 282.414 C 166 283.265, 167.146 284.250, 168.547 284.601 C 173.292 285.792, 173.019 282.986, 168.250 281.545 C 166.593 281.044, 166 281.273, 166 282.414 M 302.842 283.750 C 302.756 284.712, 302.725 286.175, 302.773 286.999 C 302.821 287.824, 302.217 288.859, 301.430 289.299 C 299.528 290.363, 299.606 292, 301.559 292 C 302.416 292, 302.923 292.337, 302.684 292.750 C 302.446 293.163, 302.606 294.400, 303.041 295.500 C 303.524 296.723, 303.801 294.491, 303.754 289.750 C 303.682 282.609, 303.219 279.562, 302.842 283.750 M 298 287.667 C 298 290.233, 298.163 292.146, 298.362 291.917 C 299.239 290.909, 299.720 283, 298.905 283 C 298.407 283, 298 285.100, 298 287.667 M 326.336 290 C 326.336 294.125, 326.513 295.813, 326.728 293.750 C 326.944 291.688, 326.944 288.313, 326.728 286.250 C 326.513 284.188, 326.336 285.875, 326.336 290 M 205 286 C 205 286.550, 206.350 287, 208 287 C 209.650 287, 211 286.550, 211 286 C 211 285.450, 209.650 285, 208 285 C 206.350 285, 205 285.450, 205 286 M 289 287 C 289 287.550, 290.548 288, 292.441 288 C 294.334 288, 296.160 287.550, 296.500 287 C 296.873 286.396, 295.510 286, 293.059 286 C 290.827 286, 289 286.450, 289 287 M 203.136 288.250 C 203.061 289.212, 202.460 290, 201.800 290 C 200.876 290, 200.872 290.272, 201.783 291.183 C 203.373 292.773, 204.261 291.695, 203.717 288.836 C 203.440 287.379, 203.221 287.158, 203.136 288.250 M 6.206 289.741 C 9.895 289.932, 16.195 289.934, 20.206 289.743 C 24.218 289.553, 21.200 289.396, 13.500 289.395 C 5.800 289.393, 2.518 289.549, 6.206 289.741 M 479.206 289.741 C 482.895 289.932, 489.195 289.934, 493.206 289.743 C 497.218 289.553, 494.200 289.396, 486.500 289.395 C 478.800 289.393, 475.518 289.549, 479.206 289.741 M 187.997 307.749 L 188.493 325.500 188.772 309.118 L 189.051 292.736 191.275 294.602 C 192.499 295.629, 192.178 295.013, 190.563 293.234 C 188.948 291.455, 187.598 289.999, 187.563 289.999 C 187.528 289.998, 187.724 297.986, 187.997 307.749 M 312.199 310.250 C 312.398 330.513, 312.751 328.133, 313.240 303.248 C 313.383 295.960, 313.163 289.997, 312.750 289.998 C 312.337 289.999, 312.089 299.113, 312.199 310.250 M 356.286 295.500 C 356.294 298.250, 356.488 299.256, 356.718 297.736 C 356.947 296.216, 356.941 293.966, 356.704 292.736 C 356.467 291.506, 356.279 292.750, 356.286 295.500 M 144.336 301.500 C 144.336 306.450, 144.513 308.812, 144.729 306.748 L 145.121 302.996 149.162 303.642 C 152.760 304.217, 153.163 304.081, 152.843 302.394 C 152.581 301.017, 151.478 300.416, 148.799 300.193 C 145.356 299.906, 145.088 299.643, 144.725 296.193 C 144.511 294.162, 144.336 296.550, 144.336 301.500 M 307.575 294.918 C 306.569 296.028, 306.026 297.816, 306.283 299.168 L 306.728 301.500 306.864 299.079 C 306.939 297.747, 307.745 295.835, 308.655 294.829 C 309.565 293.823, 310.085 293, 309.810 293 C 309.535 293, 308.529 293.863, 307.575 294.918 M 222 296.441 C 222 297.848, 222.450 299, 223 299 C 223.550 299, 224 298.127, 224 297.059 C 224 295.991, 223.550 294.840, 223 294.500 C 222.433 294.149, 222 294.990, 222 296.441 M -0 299.500 L -0 303.056 13.750 302.778 L 27.500 302.500 27.500 299.500 L 27.500 296.500 13.750 296.222 L 0 295.944 -0 299.500 M 201.015 297.750 C 201.025 298.886, 201.290 299.093, 201.769 298.340 C 202.174 297.702, 203.855 296.982, 205.503 296.740 C 208.221 296.341, 208.151 296.286, 204.750 296.150 C 201.783 296.031, 201.003 296.365, 201.015 297.750 M 270.647 303.651 C 270.291 307.859, 270 315.298, 270 320.182 C 270 327.154, 269.678 329.187, 268.500 329.638 C 265.554 330.769, 267.143 333.274, 277.560 343.923 L 288.120 354.719 292.886 354.433 C 296.696 354.205, 298.239 354.627, 300.576 356.538 L 303.500 358.928 300.372 358.964 C 298.652 358.984, 296.668 358.305, 295.962 357.454 C 295.257 356.604, 294.053 356.149, 293.288 356.443 C 292.422 356.775, 292.163 356.545, 292.603 355.834 C 293.059 355.096, 292.863 354.967, 292.048 355.470 C 291.170 356.013, 293.609 359.082, 300.093 365.594 C 307.183 372.713, 309.887 374.825, 311.449 374.462 C 312.924 374.119, 315.055 375.463, 319.033 379.243 C 322.077 382.134, 326.127 385.716, 328.033 387.203 L 331.500 389.906 328.835 389.953 C 326.898 389.987, 325.088 388.771, 322.209 385.500 C 320.030 383.025, 317.869 381, 317.405 381 C 316.198 381, 328.106 392.949, 330.500 394.140 C 331.877 394.825, 331.722 394.498, 330 393.089 L 327.500 391.044 330.124 391.022 C 331.948 391.007, 334.689 392.783, 339.124 396.854 C 342.631 400.074, 348.425 405.136, 352 408.104 L 358.500 413.500 355.073 413.827 C 351.942 414.125, 350.906 413.414, 343.073 405.589 C 338.358 400.879, 334.050 396.697, 333.500 396.296 C 332.950 395.895, 337.893 401.065, 344.484 407.784 C 351.076 414.503, 356.643 420, 356.857 420 C 357.380 420, 354.753 416.686, 353.500 415.765 C 352.950 415.361, 354.259 415.024, 356.410 415.015 C 359.748 415.002, 361.148 415.767, 365.996 420.250 C 378.750 432.045, 395.401 446.588, 398.785 448.887 C 402.033 451.094, 402.197 451.413, 400.445 452.098 C 398.665 452.795, 398.695 452.865, 400.795 452.930 C 403.004 452.997, 414.028 461.872, 428.910 475.562 C 438.186 484.095, 457 500.236, 457 499.660 C 457 499.064, 428.913 474.136, 421.327 468 L 415.764 463.500 431.020 463.223 L 446.276 462.946 451.888 466.705 C 454.975 468.772, 459.154 471.720, 461.175 473.257 C 463.197 474.793, 465.426 475.926, 466.130 475.775 C 466.833 475.624, 467.430 476.037, 467.455 476.693 C 467.480 477.349, 468.512 478.829, 469.750 479.982 C 470.988 481.135, 472 482.537, 472 483.098 C 472 483.659, 472.427 483.854, 472.950 483.531 C 473.904 482.941, 483.831 489.330, 491.426 495.422 C 495.801 498.931, 499.240 501.085, 497.500 499.225 C 496.074 497.701, 486.090 490.170, 479.556 485.690 C 476.500 483.595, 474 481.510, 474 481.059 C 474 479.780, 480.140 474.090, 482.239 473.424 C 483.807 472.927, 483.390 472.365, 479.737 470.048 C 477.200 468.439, 474.797 465.924, 474.031 464.076 L 472.709 460.883 470.579 464.692 C 469.408 466.786, 466.882 469.345, 464.966 470.379 L 461.482 472.258 456.491 468.967 C 453.746 467.158, 450.507 464.789, 449.293 463.704 C 447.267 461.894, 445.743 461.746, 430.793 461.912 L 414.500 462.092 406.339 454.796 C 401.851 450.783, 394.119 443.900, 389.158 439.500 L 380.137 431.500 391.472 431.219 L 402.807 430.938 416.153 440.613 C 423.494 445.933, 432.799 452.736, 436.832 455.729 C 440.864 458.722, 444.359 460.974, 444.599 460.734 C 444.985 460.348, 434.953 452.936, 397.591 426 C 379.782 413.161, 366.972 403.830, 354 394.248 C 334.605 379.921, 313.992 364.886, 307.970 360.674 C 304.961 358.570, 299.153 354.211, 295.061 350.987 C 288.890 346.124, 287.102 345.198, 284.561 345.549 C 282.012 345.902, 281.904 345.845, 283.917 345.211 L 286.334 344.449 283.635 342.681 C 282.151 341.708, 281.183 340.513, 281.484 340.025 C 281.786 339.537, 281.506 338.813, 280.862 338.415 C 280.131 337.963, 279.959 338.124, 280.405 338.845 C 281.394 340.447, 280.369 340.288, 277.473 338.391 C 276.122 337.505, 275.272 336.369, 275.583 335.866 C 275.894 335.362, 275.553 335.074, 274.824 335.225 C 274.096 335.376, 273.613 334.938, 273.750 334.250 C 273.971 333.145, 272.817 332.589, 270.845 332.850 C 270.485 332.898, 269.936 332.276, 269.626 331.468 C 269.316 330.661, 269.435 330, 269.890 330 C 270.344 330, 270.995 324.038, 271.336 316.750 C 271.676 309.462, 272.085 301.813, 272.245 299.750 C 272.404 297.688, 272.255 296, 271.914 296 C 271.573 296, 271.002 299.443, 270.647 303.651 M 280 297 C 280 297.550, 280.675 298, 281.500 298 C 282.325 298, 283 297.550, 283 297 C 283 296.450, 282.325 296, 281.500 296 C 280.675 296, 280 296.450, 280 297 M 473 299.597 L 473 303 486.500 303 L 500 303 500 299.462 L 500 295.924 486.500 296.059 L 473 296.194 473 299.597 M 125.728 297.722 C 127.503 297.943, 130.653 297.946, 132.728 297.730 C 134.802 297.513, 133.350 297.333, 129.500 297.328 C 125.650 297.324, 123.952 297.501, 125.728 297.722 M 283.812 299.250 C 283.581 300.488, 283.708 302.625, 284.096 304 C 284.637 305.918, 284.824 305.394, 284.900 301.750 C 285.006 296.693, 284.506 295.543, 283.812 299.250 M 368.250 297.728 C 370.313 297.944, 373.688 297.944, 375.750 297.728 C 377.813 297.513, 376.125 297.336, 372 297.336 C 367.875 297.336, 366.188 297.513, 368.250 297.728 M 119.185 310.809 C 119.083 317.579, 119.390 322.877, 119.866 322.583 C 120.342 322.289, 120.515 320.912, 120.249 319.524 L 119.767 317 128.383 317 C 136.333 317, 137 316.845, 137 315 C 137 313.157, 136.333 313, 128.500 313 C 121.712 313, 120 312.706, 120 311.539 C 120 310.394, 121.895 310.006, 128.750 309.745 L 137.500 309.411 128.802 309.206 L 120.105 309 119.737 303.750 C 119.535 300.863, 119.287 304.039, 119.185 310.809 M 222.890 301.250 C 222.719 303.384, 222.719 303.829, 222.875 314.667 C 223.044 326.366, 224.108 324.666, 224.165 312.607 C 224.204 304.410, 224.452 302.988, 225.855 302.921 C 227.224 302.855, 227.249 302.746, 226 302.271 C 225.175 301.957, 224.169 301.205, 223.765 300.600 C 223.304 299.910, 222.978 300.152, 222.890 301.250 M 294.250 300.689 C 295.212 300.941, 296.788 300.941, 297.750 300.689 C 298.712 300.438, 297.925 300.232, 296 300.232 C 294.075 300.232, 293.288 300.438, 294.250 300.689 M 432.355 309.500 C 432.352 314.450, 432.521 316.601, 432.731 314.280 C 432.940 311.959, 432.943 307.909, 432.736 305.280 C 432.530 302.651, 432.358 304.550, 432.355 309.500 M 174 303 C 174 303.550, 175.800 304, 178 304 C 180.200 304, 182 303.550, 182 303 C 182 302.450, 180.200 302, 178 302 C 175.800 302, 174 302.450, 174 303 M 228.839 308.098 C 228.652 311.451, 228.838 314.403, 229.250 314.657 C 229.662 314.910, 230 312.166, 230 308.559 C 230 304.952, 229.815 302, 229.589 302 C 229.363 302, 229.025 304.744, 228.839 308.098 M 157.300 308 C 157.300 311.025, 157.487 312.262, 157.716 310.750 C 157.945 309.238, 157.945 306.762, 157.716 305.250 C 157.487 303.738, 157.300 304.975, 157.300 308 M 67.272 308 C 67.272 310.475, 67.467 311.488, 67.706 310.250 C 67.944 309.012, 67.944 306.988, 67.706 305.750 C 67.467 304.512, 67.272 305.525, 67.272 308 M 209.402 319 C 209.402 327.525, 209.556 331.012, 209.743 326.750 C 209.931 322.488, 209.931 315.512, 209.743 311.250 C 209.556 306.988, 209.402 310.475, 209.402 319 M 290.809 304.750 C 290.639 305.163, 290.742 312.700, 291.039 321.500 L 291.577 337.500 291.789 320.750 C 291.979 305.671, 291.778 302.397, 290.809 304.750 M 216.168 310.719 C 216.027 315.108, 216.252 315.841, 217.584 315.329 C 218.505 314.976, 218.745 314.461, 218.158 314.098 C 217.603 313.755, 216.966 311.680, 216.743 309.487 C 216.376 305.891, 216.320 306.012, 216.168 310.719 M 445.500 307.654 C 438.198 308.615, 438 308.760, 438 313.163 L 438 317.287 445.228 316.615 C 449.204 316.246, 452.836 315.564, 453.301 315.099 C 453.766 314.634, 454 312.735, 453.823 310.877 C 453.477 307.258, 452.216 306.770, 445.500 307.654 M 197.500 309 C 197.840 309.550, 199.018 310, 200.118 310 C 201.218 310, 201.840 309.550, 201.500 309 C 201.160 308.450, 199.982 308, 198.882 308 C 197.782 308, 197.160 308.450, 197.500 309 M 367.728 309.722 C 369.503 309.943, 372.653 309.946, 374.728 309.730 C 376.802 309.513, 375.350 309.333, 371.500 309.328 C 367.650 309.324, 365.952 309.501, 367.728 309.722 M 6.206 314.741 C 9.895 314.932, 16.195 314.934, 20.206 314.743 C 24.218 314.553, 21.200 314.396, 13.500 314.395 C 5.800 314.393, 2.518 314.549, 6.206 314.741 M 479.206 314.741 C 482.895 314.932, 489.195 314.934, 493.206 314.743 C 497.218 314.553, 494.200 314.396, 486.500 314.395 C 478.800 314.393, 475.518 314.549, 479.206 314.741 M 94 320.500 C 94 322.910, 94.233 323, 100.500 323 C 106.767 323, 107 322.910, 107 320.500 C 107 318.090, 106.767 318, 100.500 318 C 94.233 318, 94 318.090, 94 320.500 M 216 320 C 216 320.550, 216.675 321, 217.500 321 C 218.325 321, 219 320.550, 219 320 C 219 319.450, 218.325 319, 217.500 319 C 216.675 319, 216 319.450, 216 320 M 295 321 C 295 321.550, 295.900 322, 297 322 C 298.100 322, 299 321.550, 299 321 C 299 320.450, 298.100 320, 297 320 C 295.900 320, 295 320.450, 295 321 M 202 324 C 202 324.550, 203.125 325, 204.500 325 C 205.875 325, 207 324.550, 207 324 C 207 323.450, 205.875 323, 204.500 323 C 203.125 323, 202 323.450, 202 324 M 230.190 330.632 C 230.401 331.659, 229.917 333, 229.115 333.612 C 227.335 334.970, 226.705 338.265, 228.330 337.723 C 228.974 337.509, 229.500 336.831, 229.500 336.217 C 229.500 335.603, 230.063 334.538, 230.750 333.850 C 232.292 332.308, 232.361 330.341, 230.904 329.441 C 230.220 329.018, 229.952 329.467, 230.190 330.632 M 174 332.696 C 174 333.551, 175.378 334, 178 334 C 180.936 334, 182 333.590, 182 332.459 C 182 331.290, 181.038 330.976, 178 331.155 C 175.498 331.303, 174 331.880, 174 332.696 M 319 332.500 C 319 333.583, 320.111 334, 323 334 C 325.889 334, 327 333.583, 327 332.500 C 327 331.417, 325.889 331, 323 331 C 320.111 331, 319 331.417, 319 332.500 M 286.300 337 C 286.300 340.025, 286.487 341.262, 286.716 339.750 C 286.945 338.238, 286.945 335.762, 286.716 334.250 C 286.487 332.738, 286.300 333.975, 286.300 337 M 211.500 346.539 C 203.800 352.240, 194.800 358.798, 191.500 361.114 C 181.752 367.953, 160 384.264, 160 384.735 C 160 384.975, 162.198 383.557, 164.884 381.585 C 169.107 378.485, 170.522 378, 175.339 378 L 180.909 378 178.638 380.250 C 177.390 381.488, 174.297 384.188, 171.766 386.250 C 167.446 389.770, 166.745 390, 160.332 389.995 L 153.500 389.990 156.500 387.423 C 161.882 382.817, 156.769 386.208, 142.500 396.708 C 130.207 405.754, 122.370 411.496, 95.674 431.014 C 92.278 433.496, 80.950 441.690, 70.500 449.223 C 60.050 456.756, 50.150 464.112, 48.500 465.570 L 45.500 468.221 49.217 465.585 C 52.899 462.973, 53.078 462.951, 68.585 463.224 L 84.236 463.500 78.673 468 C 70.967 474.233, 43 499.068, 43 499.678 C 43 500.212, 57.375 487.798, 87.681 461.091 L 96.862 453 102.618 453 L 108.374 453 105.460 456.250 C 103.857 458.038, 107.148 455.008, 112.773 449.519 C 118.398 444.029, 123 439.347, 123 439.114 C 123 438.550, 119.723 441.512, 114.397 446.889 C 110.405 450.920, 109.558 451.316, 104.025 451.738 C 100.711 451.991, 98 451.944, 98 451.635 C 98 451.325, 99.545 450.023, 101.432 448.740 C 104.820 446.438, 121.421 431.936, 133.474 420.750 C 138.841 415.770, 140.194 415.002, 143.585 415.016 L 147.500 415.032 139.728 422.661 C 135.453 426.856, 132.100 430.433, 132.276 430.609 C 132.452 430.785, 139.324 424.087, 147.548 415.724 C 155.772 407.361, 159.775 403.114, 156.444 406.286 C 153.113 409.459, 150.038 411.704, 149.610 411.277 C 149.183 410.850, 148.983 411.175, 149.167 412 C 149.411 413.102, 148.438 413.585, 145.500 413.819 L 141.500 414.138 145 410.366 C 146.925 408.292, 144.762 409.949, 140.194 414.048 C 135.625 418.146, 129.550 423.411, 126.694 425.746 L 121.500 429.992 110 429.937 C 100.732 429.893, 98.855 429.651, 100.330 428.691 C 101.336 428.036, 108.711 422.637, 116.718 416.694 L 131.277 405.888 140.827 406.081 L 150.378 406.274 158.892 398.637 C 165.931 392.323, 168.021 390.979, 170.953 390.882 C 174.457 390.765, 174.464 390.756, 171.547 390.130 L 168.593 389.497 171.047 387.870 C 172.396 386.975, 174.850 385, 176.500 383.481 C 182.329 378.114, 188.635 372.460, 192.544 369.096 C 194.720 367.223, 197.683 364.604, 199.128 363.275 C 200.574 361.946, 202.599 360.718, 203.628 360.547 C 204.658 360.375, 205.398 359.763, 205.273 359.187 C 205.148 358.610, 206.386 357.012, 208.023 355.634 C 209.660 354.256, 211 352.953, 211 352.738 C 211 352.523, 209.586 352.554, 207.858 352.808 C 205.681 353.127, 204.931 352.920, 205.417 352.134 C 205.803 351.510, 207.018 351, 208.118 351 C 209.218 351, 209.841 350.552, 209.503 350.004 C 209.164 349.457, 210.038 348.484, 211.444 347.844 C 212.850 347.203, 214 346.301, 214 345.839 C 214 345.378, 214.927 345, 216.059 345 C 217.199 345, 217.838 345.454, 217.490 346.016 C 217.144 346.575, 216.432 346.767, 215.906 346.442 C 215.381 346.117, 215.074 346.431, 215.225 347.139 C 215.376 347.847, 214.488 348.887, 213.250 349.451 C 210.686 350.617, 210.136 352.546, 212.641 351.584 C 214.066 351.038, 214.105 351.189, 212.941 352.727 C 212.203 353.702, 214.952 351.190, 219.049 347.145 C 223.147 343.100, 226.551 338.938, 226.613 337.895 C 226.676 336.853, 226.451 336.039, 226.113 336.086 C 225.776 336.134, 219.200 340.837, 211.500 346.539 M 432.320 342 C 432.320 345.575, 432.502 347.038, 432.723 345.250 C 432.945 343.462, 432.945 340.538, 432.723 338.750 C 432.502 336.962, 432.320 338.425, 432.320 342 M 6.206 338.741 C 9.895 338.932, 16.195 338.934, 20.206 338.743 C 24.218 338.553, 21.200 338.396, 13.500 338.395 C 5.800 338.393, 2.518 338.549, 6.206 338.741 M 49.250 338.706 C 47.356 339.071, 47 339.783, 47 343.213 L 47 347.287 54.126 346.625 C 58.045 346.261, 61.645 345.720, 62.126 345.422 C 62.607 345.125, 63 343.334, 63 341.441 L 63 338 57.250 338.136 C 54.087 338.211, 50.487 338.467, 49.250 338.706 M 438 341.831 C 438 346.466, 438.421 346.703, 447.500 347.183 L 453.500 347.500 453.823 344.123 C 454 342.265, 453.775 340.398, 453.323 339.974 C 452.870 339.549, 449.238 338.886, 445.250 338.499 L 438 337.797 438 341.831 M 479.206 338.741 C 482.895 338.932, 489.195 338.934, 493.206 338.743 C 497.218 338.553, 494.200 338.396, 486.500 338.395 C 478.800 338.393, 475.518 338.549, 479.206 338.741 M 220.500 341.450 C 217.966 343.512, 217.839 343.806, 219.685 343.346 C 221.919 342.788, 226.043 338.996, 224.405 339.005 C 223.907 339.008, 222.150 340.108, 220.500 341.450 M 123.750 345.732 C 126.087 345.943, 129.912 345.943, 132.250 345.732 C 134.588 345.522, 132.675 345.349, 128 345.349 C 123.325 345.349, 121.412 345.522, 123.750 345.732 M 368.250 345.728 C 370.313 345.944, 373.688 345.944, 375.750 345.728 C 377.813 345.513, 376.125 345.336, 372 345.336 C 367.875 345.336, 366.188 345.513, 368.250 345.728 M 284.333 348.608 C 284.333 349.312, 284.596 349.861, 284.917 349.826 C 286.746 349.629, 288 350.130, 288 351.059 C 288 351.641, 287.550 351.840, 287 351.500 C 285.372 350.494, 285.860 351.642, 287.692 353.128 C 288.623 353.882, 289.072 353.980, 288.692 353.345 C 288.195 352.517, 289.203 352.327, 292.250 352.675 C 295.432 353.038, 296.123 352.892, 295 352.095 C 294.175 351.510, 292.375 350.992, 291 350.945 C 288.815 350.870, 288.743 350.764, 290.427 350.105 C 292.329 349.359, 292.329 349.339, 290.427 348.525 C 287.307 347.188, 284.333 347.229, 284.333 348.608 M 120 350.960 C 120 352.855, 120.610 353, 128.573 353 C 136.199 353, 137.110 352.807, 136.812 351.250 C 136.532 349.781, 135.153 349.453, 128.239 349.210 C 120.517 348.937, 120 349.047, 120 350.960 M 198.430 357.296 C 196.268 359.109, 192.285 362.034, 189.579 363.796 L 184.657 367 189.147 367 C 192.837 367, 194.317 366.394, 197.458 363.600 C 200.763 360.660, 201.024 360.135, 199.390 359.716 C 197.919 359.339, 198.054 359.198, 200 359.080 C 201.375 358.996, 203.850 357.821, 205.500 356.469 L 208.500 354.010 205.430 354.005 C 203.414 354.002, 201.011 355.132, 198.430 357.296 M 299.243 363.750 C 300.975 365.538, 302.986 367, 303.712 367 C 304.438 367, 303.562 365.603, 301.766 363.895 L 298.500 360.791 302.478 363.895 C 305.586 366.321, 307.442 367, 310.964 367 L 315.473 367 310.218 363.461 C 305.846 360.516, 304.219 359.971, 300.529 360.211 L 296.095 360.500 299.243 363.750 M 380.272 364 C 380.272 366.475, 380.467 367.488, 380.706 366.250 C 380.944 365.012, 380.944 362.988, 380.706 361.750 C 380.467 360.512, 380.272 361.525, 380.272 364 M 6.206 362.741 C 9.895 362.932, 16.195 362.934, 20.206 362.743 C 24.218 362.553, 21.200 362.396, 13.500 362.395 C 5.800 362.393, 2.518 362.549, 6.206 362.741 M 479.206 362.741 C 482.895 362.932, 489.195 362.934, 493.206 362.743 C 497.218 362.553, 494.200 362.396, 486.500 362.395 C 478.800 362.393, 475.518 362.549, 479.206 362.741 M 178.327 371.625 C 171.114 377.042, 171.123 377.004, 177.050 376.955 C 182.063 376.914, 182.899 376.553, 187.473 372.455 L 192.445 368 187.799 368 C 184.013 368, 182.260 368.671, 178.327 371.625 M 307.219 370.733 C 309.975 373.667, 311.905 373.697, 309.405 370.767 C 307.520 368.558, 307.521 368.549, 309.500 369.965 C 310.600 370.752, 312.898 372.682, 314.607 374.255 C 317.336 376.767, 318.353 377.077, 322.980 376.807 L 328.246 376.500 322.427 372.198 C 316.956 368.153, 316.263 367.913, 310.849 368.181 L 305.090 368.466 307.219 370.733 M 53.250 376.219 L 47 378.278 47 382.558 L 47 386.839 50.750 385.853 C 52.813 385.311, 56.413 384.162, 58.750 383.298 C 62.746 381.822, 63 381.497, 63 377.864 C 63 373.291, 62.433 373.195, 53.250 376.219 M 438 377.928 C 438 381.777, 438.112 381.898, 443.538 383.928 C 446.583 385.068, 449.958 386, 451.038 386 C 452.945 386, 453.046 385.651, 452.994 379.250 C 452.988 378.477, 441.476 374.113, 439.250 374.041 C 438.455 374.015, 438 375.431, 438 377.928 M 183.462 380.250 L 178.500 385.500 183.750 380.538 C 188.628 375.926, 189.459 375, 188.712 375 C 188.554 375, 186.192 377.363, 183.462 380.250 M 325.692 383.983 L 332.500 389.965 339.309 389.983 C 343.054 389.992, 345.873 389.603, 345.573 389.119 C 345.274 388.634, 341.634 385.934, 337.484 383.119 C 330.659 378.488, 329.414 378, 324.413 378 L 318.885 378 325.692 383.983 M 143.569 397.042 C 132.355 405.413, 132.431 405, 142.094 405 L 150.588 405 154.844 401.032 C 157.185 398.849, 160.755 395.699, 162.778 394.032 L 166.456 391 158.978 391.061 L 151.500 391.121 143.569 397.042 M 341.844 398.042 L 349.188 405 357.653 405 C 362.309 405, 365.877 404.610, 365.583 404.134 C 365.288 403.657, 361.248 400.507, 356.605 397.134 C 348.194 391.023, 348.137 391, 341.331 391.042 L 334.500 391.084 341.844 398.042 M 359.150 413.250 C 363.640 417.238, 369.811 422.637, 372.863 425.250 L 378.413 430 389.957 429.941 C 399.275 429.894, 401.142 429.653, 399.643 428.691 C 398.622 428.036, 391.283 422.663, 383.334 416.750 L 368.882 406 359.935 406 L 350.987 406 359.150 413.250 M 6.206 409.741 C 9.895 409.932, 16.195 409.934, 20.206 409.743 C 24.218 409.553, 21.200 409.396, 13.500 409.395 C 5.800 409.393, 2.518 409.549, 6.206 409.741 M 479.206 409.741 C 482.895 409.932, 489.195 409.934, 493.206 409.743 C 497.218 409.553, 494.200 409.396, 486.500 409.395 C 478.800 409.393, 475.518 409.549, 479.206 409.741 M 94 433.165 C 92.625 434.318, 84.075 440.567, 75 447.050 C 65.925 453.533, 57.600 459.534, 56.500 460.387 C 54.669 461.806, 55.828 461.939, 70.247 461.968 L 85.994 462 93.247 455.219 C 97.236 451.489, 102.075 447.250, 104 445.798 C 105.925 444.346, 110.425 440.433, 114 437.103 L 120.500 431.048 108.500 431.057 C 97.782 431.066, 96.233 431.291, 94 433.165 M 6.206 433.741 C 9.895 433.932, 16.195 433.934, 20.206 433.743 C 24.218 433.553, 21.200 433.396, 13.500 433.395 C 5.800 433.393, 2.518 433.549, 6.206 433.741 M 479.206 433.741 C 482.895 433.932, 489.195 433.934, 493.206 433.743 C 497.218 433.553, 494.200 433.396, 486.500 433.395 C 478.800 433.393, 475.518 433.549, 479.206 433.741 M 385.985 448.254 C 392.852 455.264, 398.681 461, 398.938 461 C 399.195 461, 397.648 459.200, 395.500 457 L 391.594 453 394.797 453 C 396.559 453, 397.999 452.663, 397.997 452.250 C 397.995 451.837, 396.183 451.478, 393.970 451.450 C 390.327 451.405, 389.172 450.652, 381.724 443.454 C 377.201 439.084, 379.118 441.244, 385.985 448.254 M 38.035 472.750 C 34.534 475.363, 27.806 480.303, 23.085 483.728 C 13.050 491.009, 2.022 499.392, 2.009 499.750 C 1.981 500.523, 3.463 499.564, 8.211 495.739 C 11.120 493.395, 14.850 490.622, 16.500 489.577 C 19.443 487.712, 42.584 470.564, 44.450 468.865 C 47.061 466.488, 43.693 468.528, 38.035 472.750 M 419 480.500 C 425.307 486.825, 430.692 492, 430.967 492 C 431.242 492, 426.307 486.825, 420 480.500 C 413.693 474.175, 408.308 469, 408.033 469 C 407.758 469, 412.693 474.175, 419 480.500 M 78.437 482.250 L 75.500 485.500 78.750 482.563 C 80.537 480.948, 82 479.485, 82 479.313 C 82 478.540, 81.175 479.221, 78.437 482.250" stroke="none" fill="#c391ca" fill-rule="evenodd"/><path d="M 18 9 L 18 18 12.500 18 L 7 18 7 54.500 L 7 91 44.500 91 L 82 91 82 54.333 C 82 34.167, 82.247 17.913, 82.548 18.215 C 82.850 18.517, 83.064 35.049, 83.025 54.955 L 82.953 91.146 91.227 100.764 L 99.500 110.382 99.764 78.691 L 100.028 47 97.436 43.083 C 94.857 39.185, 94.844 39.069, 94.957 19.583 C 95.055 2.596, 94.866 0, 93.535 0 C 92.219 0, 92 2.289, 92 16.059 C 92 31.876, 91.496 33.962, 88.950 28.694 C 87.927 26.577, 87.944 26.568, 89.445 28.441 C 90.869 30.218, 91 29.099, 91 15.191 L 91 0 86 0 L 81 0 81 9.500 L 81 19 55.750 18.768 L 30.500 18.537 55.250 18.251 L 80 17.965 80 8.983 L 80 0 49 0 L 18 0 18 9 M 405.597 3.750 C 405.279 5.813, 405.097 14.518, 405.194 23.097 C 405.366 38.365, 405.313 38.789, 402.685 43.275 L 400 47.856 400.025 79.178 L 400.050 110.500 404.183 106 C 406.457 103.525, 410.281 99.397, 412.682 96.827 L 417.046 92.154 416.968 55.327 L 416.891 18.500 419.695 18.341 C 421.774 18.224, 421.918 18.307, 420.250 18.661 L 418 19.139 418 55.070 L 418 91 456 91 L 494 91 494 55 C 494 35.200, 493.663 18.935, 493.250 18.856 C 492.837 18.776, 490.250 18.642, 487.500 18.558 L 482.500 18.406 482.212 9.203 L 481.925 -0 451.001 -0 L 420.078 0 419.745 8.750 L 419.411 17.500 419.206 8.750 L 419 0 414.500 0 L 410 0 409.923 10.750 C 409.881 16.663, 409.629 23.456, 409.363 25.846 C 409.015 28.982, 409.203 29.992, 410.040 29.475 C 410.909 28.938, 410.923 29.275, 410.094 30.824 C 409.487 31.959, 408.472 33.208, 407.840 33.599 C 407.110 34.050, 406.965 33.866, 407.441 33.096 C 407.853 32.429, 408.169 28.309, 408.143 23.941 C 408.117 19.574, 408.074 12.400, 408.048 8 C 407.998 -0.325, 406.600 -2.749, 405.597 3.750 M 41.184 4.750 L 41.500 7.500 58.426 7.775 C 76.049 8.061, 76.949 7.866, 76.985 3.750 C 76.999 2.147, 75.479 2, 58.934 2 L 40.867 2 41.184 4.750 M 101.007 79.500 C 100.988 110.735, 100.881 112.660, 99 115.500 C 97.214 118.197, 97.018 120.164, 97.059 135 L 97.105 151.500 105 167 L 112.895 182.500 112.947 138.691 C 112.980 111.314, 112.644 95.102, 112.052 95.468 C 111.530 95.790, 109.252 93.548, 106.989 90.485 C 104.076 86.541, 102.966 84.126, 103.188 82.208 C 103.481 79.666, 103.790 79.894, 108.250 85.950 L 113 92.400 112.986 79.950 L 112.972 67.500 107 57 L 101.028 46.500 101.007 79.500 M 393.250 57.132 L 388 66.134 388.030 79.317 C 388.051 88.209, 388.373 91.966, 389.019 90.859 C 389.546 89.957, 391.432 87.575, 393.210 85.567 C 395.925 82.501, 396.541 82.191, 397.049 83.638 C 398.121 86.697, 396.932 89.520, 392.446 94.563 L 388.054 99.500 387.959 131.500 C 387.906 149.100, 387.730 167.662, 387.568 172.750 C 387.405 177.837, 387.438 182, 387.640 182 C 387.842 182, 391.381 175.217, 395.504 166.927 L 403 151.854 402.996 135.177 C 402.993 120.313, 402.777 118.146, 401.010 115.249 C 399.159 112.213, 399.010 109.881, 398.764 80.063 L 398.500 48.129 393.250 57.132 M 19 53.471 L 19 55.942 34.500 55.833 L 50 55.724 50 53.362 L 50 51 34.500 51 L 19 51 19 53.471 M 450 75.500 L 450 78 465.500 78 L 481 78 481 75.500 L 481 73 465.500 73 L 450 73 450 75.500 M 0 138.960 L 0 185.919 8.250 186.256 L 16.500 186.593 8.250 186.796 L 0 187 0 194 L 0 201 14 201 L 28 201 28 204 L 28 207 14 207 L 0 207 -0 223.962 L -0 240.925 9.250 241.255 L 18.500 241.585 9.250 241.792 L 0 242 0 253.472 L 0 264.944 13.750 265.252 L 27.500 265.561 13.750 265.781 L 0 266 0 277.472 L 0 288.944 13.750 289.252 L 27.500 289.561 13.750 289.781 L 0 290 0 292.972 L 0 295.944 13.750 296.222 L 27.500 296.500 27.500 299.500 L 27.500 302.500 13.750 302.778 L -0 303.056 -0 308.500 L 0 313.944 13.750 314.252 L 27.500 314.561 13.750 314.781 L 0 315 0 326.472 L 0 337.944 13.750 338.252 L 27.500 338.561 13.750 338.781 L 0 339 0 350.472 L 0 361.944 13.750 362.252 L 27.500 362.561 13.750 362.781 L 0 363 0 385.972 L 0 408.944 13.750 409.252 L 27.500 409.561 13.750 409.781 L 0 410 0 421.472 L 0 432.944 13.750 433.252 L 27.500 433.561 13.750 433.781 L 0 434 -0 467.083 C -0 489.911, 0.328 500.057, 1.058 499.814 C 1.641 499.620, 4.903 497.323, 8.308 494.709 C 11.714 492.095, 18.370 487.154, 23.099 483.728 C 27.829 480.303, 34.129 475.671, 37.099 473.435 C 42.804 469.141, 46.258 466.940, 44.500 468.718 C 43.034 470.201, 20.011 487.352, 16.500 489.577 C 14.850 490.622, 11.120 493.395, 8.211 495.739 L 2.922 500 22.520 500 L 42.117 500 57.606 486.250 C 66.125 478.688, 75.602 470.475, 78.666 468 L 84.236 463.500 68.585 463.224 C 53.078 462.951, 52.899 462.973, 49.217 465.585 L 45.500 468.221 48.500 465.570 C 50.150 464.112, 60.050 456.756, 70.500 449.223 C 80.950 441.690, 92.278 433.496, 95.674 431.014 C 122.370 411.496, 130.207 405.754, 142.500 396.708 C 156.769 386.208, 161.882 382.817, 156.500 387.423 L 153.500 389.990 160.332 389.995 C 166.745 390, 167.446 389.770, 171.766 386.250 C 174.297 384.188, 177.390 381.488, 178.638 380.250 L 180.909 378 175.339 378 C 170.522 378, 169.107 378.485, 164.884 381.585 C 162.198 383.557, 160 384.975, 160 384.735 C 160 384.302, 179.907 369.358, 191.708 360.932 C 195.122 358.495, 204.267 351.887, 212.030 346.250 C 219.793 340.612, 226.364 336, 226.631 336 C 226.899 336, 226.797 336.520, 226.405 337.155 C 225.959 337.876, 226.131 338.037, 226.862 337.585 C 227.506 337.187, 227.793 336.474, 227.500 335.999 C 227.206 335.525, 227.871 334.503, 228.977 333.729 C 230.083 332.954, 230.716 332.049, 230.383 331.717 C 230.051 331.385, 229.831 327.673, 229.894 323.468 C 229.958 319.264, 229.707 315.335, 229.338 314.737 C 228.968 314.140, 228.772 311.051, 228.902 307.875 C 229.277 298.673, 228.127 293, 225.886 293 C 224.457 293, 224 293.727, 224 296 C 224 297.650, 223.550 299, 223 299 C 222.136 299, 221.396 286.159, 221.949 280.743 C 222.192 278.362, 219.190 275.410, 217.869 276.731 C 217.317 277.283, 216.606 281.169, 216.289 285.367 L 215.711 293 218.415 293 C 219.962 293, 220.854 293.428, 220.500 294 C 220.160 294.550, 219.009 295, 217.941 295 C 216.873 295, 215.909 295.113, 215.797 295.250 C 215.686 295.387, 215.317 305.850, 214.978 318.500 C 214.431 338.917, 214.357 337.105, 214.319 302.372 C 214.285 271.321, 213.991 262.600, 212.894 260.122 C 211.473 256.913, 208 255.762, 208 258.500 C 208 259.325, 207.325 260, 206.500 260 C 205.335 260, 205 261.326, 205 265.934 C 205 271.639, 205.106 271.883, 207.750 272.284 L 210.500 272.700 207.839 272.850 C 205.320 272.992, 205.148 273.335, 204.632 279.250 C 204.332 282.688, 204.084 287.006, 204.081 288.846 C 204.073 293.553, 201.851 292.413, 201.407 287.475 C 201.213 285.305, 200.066 280.733, 198.860 277.316 C 196.884 271.720, 196.359 271.063, 193.583 270.711 L 190.500 270.320 193.750 270.160 C 197.672 269.967, 198.247 267.289, 194.469 266.816 C 193.077 266.642, 191.938 266.050, 191.938 265.500 C 191.938 264.950, 193.077 264.358, 194.469 264.184 C 196.397 263.943, 197 263.287, 197 261.434 C 197 259.018, 196.927 259, 187 259 L 177 259 177 265 C 177 269.465, 176.643 271, 175.605 271 C 174.517 271, 174.111 268.417, 173.757 259.250 C 173.408 250.195, 172.716 245.732, 170.740 239.790 C 167.886 231.206, 166.299 224.084, 168.002 227.500 C 168.671 228.841, 168.799 214.016, 168.389 182.500 C 167.765 134.447, 167.463 130.988, 163.798 129.766 C 163.113 129.538, 162.482 127.936, 162.395 126.206 C 162.119 120.718, 161.441 120, 156.531 120 C 152.709 120, 152 120.304, 152 121.945 C 152 123.551, 152.815 123.944, 156.672 124.195 C 159.455 124.377, 161.446 125.015, 161.597 125.775 C 161.736 126.476, 161.621 126.589, 161.342 126.025 C 161.051 125.440, 157.009 125, 151.917 125 L 143 125 143 134 L 143 143 151.393 143 C 158.466 143, 159.891 143.275, 160.452 144.750 C 160.986 146.153, 160.869 146.252, 159.859 145.250 C 159.023 144.420, 155.298 144, 148.782 144 L 138.963 144 139.232 167.241 L 139.500 190.481 142.500 191.172 C 145.141 191.779, 145.021 191.840, 141.500 191.683 L 137.500 191.504 137.219 203.752 L 136.938 216 150.469 216 L 164 216 164.217 185.250 L 164.435 154.500 165.020 187.500 C 165.342 205.650, 165.855 221.400, 166.159 222.500 C 166.464 223.600, 166.440 223.825, 166.106 223 C 165.773 222.175, 165.271 255.700, 164.991 297.500 L 164.481 373.500 164.241 295.250 L 164 217 145.500 217 L 127 217 127 233.937 L 127 250.873 123.750 251.187 L 120.500 251.500 120.307 273.359 C 120.201 285.382, 119.815 295.507, 119.449 295.859 C 119.084 296.212, 119.075 274.777, 119.431 248.227 L 120.077 199.955 106.472 172.227 C 98.990 156.977, 92.383 143.510, 91.791 142.299 C 90.964 140.607, 89.648 140.013, 86.107 139.729 L 81.500 139.360 86.625 139.180 L 91.750 139 93.794 143.750 L 95.838 148.500 95.919 133.618 C 95.990 120.658, 96.254 118.325, 97.965 115.557 L 99.929 112.378 95.880 107.439 C 93.653 104.723, 89.572 100.138, 86.812 97.250 L 81.792 92 40.896 92 L 0 92 0 138.960 M 418.777 116.250 L 418.555 140.500 418.027 116.710 L 417.500 92.920 412.928 97.710 C 410.413 100.345, 406.542 104.750, 404.326 107.500 L 400.295 112.500 402.142 115.500 C 403.721 118.063, 404 120.757, 404.060 134 L 404.130 149.500 406.199 144.250 C 407.337 141.363, 408.658 139, 409.134 139 C 409.619 139, 409.892 201.559, 409.755 281.250 L 409.510 423.500 409.005 282.988 L 408.500 142.476 394.750 170.615 L 381 198.754 381 279.044 C 381 323.203, 380.770 359.103, 380.488 358.822 C 380.207 358.540, 379.979 334.165, 379.982 304.655 L 379.987 251 376.493 251 L 373 251 373 234 L 373 217 355 217 L 337 217 336.765 295.750 C 336.552 367.277, 336.482 370.281, 336 328.500 C 335.708 303.200, 335.364 283.063, 335.235 283.750 C 334.962 285.203, 330 285.473, 330 284.035 C 330 282.697, 333.826 280.774, 335.021 281.513 C 335.653 281.903, 335.967 271.010, 335.906 250.809 L 335.813 219.500 333.851 226 C 332.772 229.575, 331.533 233.625, 331.097 235 C 330.599 236.570, 330.235 232.870, 330.117 225.049 C 330.015 218.200, 329.695 212.362, 329.408 212.074 C 329.120 211.787, 328.949 218.515, 329.026 227.026 C 329.106 235.760, 328.695 244.022, 328.084 245.993 C 327.488 247.915, 326.915 256.915, 326.811 265.993 C 326.707 275.072, 326.459 279.913, 326.261 276.750 L 325.900 271 318.700 270.807 L 311.500 270.615 317.750 270.260 L 324 269.905 324 264.452 C 324 259.303, 323.861 259, 321.500 259 C 320.125 259, 319 259.450, 319 260 C 319 261.532, 311.589 261.188, 308.364 259.506 C 305.563 258.045, 305.649 258.012, 312.250 258.006 L 319 258 319 249.924 L 319 241.847 314.825 242.149 C 312.015 242.351, 310.504 242.013, 310.205 241.115 C 309.866 240.097, 310.857 239.867, 314.380 240.147 L 319 240.514 319 234.257 L 319 228 313.083 228 C 309.286 228, 306.986 228.448, 306.662 229.250 C 306.361 229.997, 306.126 229.795, 306.079 228.750 C 306.011 227.255, 306.946 227, 312.500 227 L 319 227 319 221.875 L 319 216.750 316 217.350 C 313.313 217.887, 313 217.692, 313 215.475 C 313 213.313, 312.557 213, 309.500 213 C 306.524 213, 306 213.341, 306 215.278 C 306 216.531, 305.100 218.326, 304 219.268 C 302.110 220.886, 302 222.218, 302 243.431 C 302 258.327, 301.639 266.105, 300.928 266.545 C 300.290 266.939, 299.927 270.302, 300.032 274.854 C 300.128 279.059, 299.764 284.750, 299.221 287.500 L 298.235 292.500 298.118 287.750 C 298.053 285.137, 297.550 283, 297 283 C 296.450 283, 296 281.650, 296 280 C 296 277.467, 295.611 277, 293.500 277 C 292.125 277, 291 276.550, 291 276 C 291 275.450, 292.125 275, 293.500 275 C 295.944 275, 296 274.833, 296 267.500 C 296 261.500, 295.700 260, 294.500 260 C 293.675 260, 293 259.325, 293 258.500 C 293 257.667, 292.111 257, 291 257 C 289.900 257, 289 257.585, 289 258.300 C 289 259.015, 288.445 260.155, 287.766 260.834 C 286.826 261.774, 286.611 269.282, 286.863 292.284 C 287.045 308.903, 286.960 322.272, 286.674 321.994 C 286.388 321.715, 286.038 314.627, 285.896 306.244 C 285.754 297.860, 285.269 291, 284.819 291 C 284.368 291, 284 290.133, 284 289.073 C 284 288.014, 283.212 286.941, 282.250 286.689 C 280.583 286.254, 280.583 286.226, 282.250 286.116 C 284.717 285.952, 284.787 277.516, 282.330 276.573 C 281.409 276.220, 280.294 276.508, 279.845 277.216 C 279.009 278.534, 278.563 293.890, 278.719 316 C 278.796 327.012, 278.714 327.667, 278.028 321.500 C 277.599 317.650, 277.193 311.495, 277.124 307.823 C 277.023 302.370, 276.679 301.063, 275.250 300.689 C 273.583 300.254, 273.583 300.226, 275.250 300.116 C 277.146 299.990, 277.626 296.537, 276.086 294.104 C 274.389 291.425, 272.225 293.656, 272.137 298.176 C 271.864 312.077, 270.598 330, 269.890 330 C 269.435 330, 269.316 330.661, 269.626 331.468 C 269.936 332.276, 270.485 332.898, 270.845 332.850 C 272.817 332.589, 273.971 333.145, 273.750 334.250 C 273.613 334.938, 274.096 335.376, 274.824 335.225 C 275.553 335.074, 275.894 335.362, 275.583 335.866 C 275.272 336.369, 276.122 337.505, 277.473 338.391 C 280.369 340.288, 281.394 340.447, 280.405 338.845 C 279.959 338.124, 280.131 337.963, 280.862 338.415 C 281.506 338.813, 281.786 339.537, 281.484 340.025 C 281.183 340.513, 282.151 341.708, 283.635 342.681 L 286.334 344.449 283.917 345.211 C 281.904 345.845, 282.012 345.902, 284.561 345.549 C 287.102 345.198, 288.890 346.124, 295.061 350.987 C 299.153 354.211, 304.961 358.570, 307.970 360.674 C 313.992 364.886, 334.605 379.921, 354 394.248 C 366.972 403.830, 379.782 413.161, 397.591 426 C 434.556 452.649, 444.989 460.344, 444.637 460.697 C 444.274 461.059, 428.687 450.015, 410.240 436.325 L 402.979 430.937 391.558 431.218 L 380.137 431.500 389.158 439.500 C 394.119 443.900, 401.851 450.783, 406.339 454.796 L 414.500 462.092 430.793 461.912 C 445.743 461.746, 447.267 461.894, 449.293 463.704 C 450.507 464.789, 453.746 467.158, 456.491 468.967 L 461.482 472.258 464.966 470.379 C 466.882 469.345, 469.408 466.786, 470.579 464.692 L 472.709 460.883 474.031 464.076 C 474.797 465.924, 477.200 468.439, 479.737 470.048 C 483.390 472.365, 483.807 472.927, 482.239 473.424 C 480.140 474.090, 474 479.780, 474 481.059 C 474 481.510, 476.501 483.595, 479.558 485.690 C 482.615 487.786, 488.198 491.863, 491.965 494.750 C 495.732 497.637, 499.081 500, 499.407 500 C 499.733 500, 500 485.163, 500 467.028 L 500 434.056 486.250 433.748 L 472.500 433.439 486.250 433.219 L 500 433 500 421.528 L 500 410.056 486.250 409.748 L 472.500 409.439 486.250 409.219 L 500 409 500 386.028 L 500 363.056 486.250 362.748 L 472.500 362.439 486.250 362.219 L 500 362 500 350.528 L 500 339.056 486.250 338.748 L 472.500 338.439 486.250 338.219 L 500 338 500 326.528 L 500 315.056 486.250 314.748 L 472.500 314.439 486.250 314.219 L 500 314 500 308.500 L 500 303 486.500 303 L 473 303 473 299.456 C 473 297.201, 473.455 295.971, 474.250 296.075 C 474.938 296.164, 481.012 296.184, 487.750 296.118 L 500 296 500 293.028 L 500 290.056 486.250 289.748 L 472.500 289.439 486.250 289.219 L 500 289 500 277.528 L 500 266.056 486.250 265.748 L 472.500 265.439 486.250 265.219 L 500 265 500 253.555 L 500 242.110 495.250 241.735 L 490.500 241.360 495.250 241.180 L 500 241 500 224 L 500 207 486.500 207 L 473 207 473 204 L 473 201 486.500 201 L 500 201 500 194.023 L 500 187.045 481.844 186.773 C 465.527 186.528, 463.876 186.348, 465.536 185 C 466.598 184.138, 467.064 184.032, 466.633 184.750 C 466.044 185.730, 469.560 186, 482.941 186 L 500 186 500 175.500 L 500 165 484.934 165 L 469.867 165 470.184 162.250 L 470.500 159.500 485.250 159.223 L 500 158.947 500 125.473 L 500 92 459.500 92 L 419 92 418.777 116.250 M 10.667 113.667 C 9.431 114.903, 9.988 117.781, 11.582 118.393 C 13.644 119.184, 34.409 119.158, 39.250 118.358 C 42.354 117.845, 43 117.330, 43 115.369 L 43 113 27.167 113 C 18.458 113, 11.033 113.300, 10.667 113.667 M 338.560 122.618 C 338.198 124.058, 338.150 125.483, 338.451 125.785 C 338.753 126.086, 339 125.808, 339 125.167 C 339 124.451, 340.738 124, 343.500 124 C 347.333 124, 348 123.704, 348 122 C 348 120.304, 347.333 120, 343.608 120 C 339.705 120, 339.144 120.291, 338.560 122.618 M 339.200 126.200 C 338.540 126.860, 338 127.971, 338 128.669 C 338 129.366, 337.394 129.705, 336.654 129.421 C 335.770 129.082, 334.771 130.380, 333.744 133.202 C 332.444 136.774, 332.083 145.350, 331.607 184 L 331.034 230.500 333.002 224.500 C 334.772 219.104, 334.995 215.226, 335.212 186 C 335.370 164.711, 335.555 159.946, 335.748 172.186 L 336.044 190.871 338.772 191.286 L 341.500 191.700 338.750 191.850 L 336 192 336 204 L 336 216 349.500 216 L 363 216 363 203.500 C 363 195.833, 362.613 191, 362 191 C 361.362 191, 361 182.500, 361 167.500 L 361 144 351.107 144 C 342.853 144, 341.110 144.272, 340.583 145.643 C 340.237 146.547, 339.728 147.061, 339.453 146.786 C 339.178 146.511, 339.237 145.547, 339.583 144.643 C 340.099 143.300, 341.744 143, 348.607 143 L 357 143 357 134 L 357 125 348.700 125 C 343.578 125, 339.941 125.459, 339.200 126.200 M 346 158.500 C 346 159.690, 347.444 160, 353 160 C 358.556 160, 360 159.690, 360 158.500 C 360 157.310, 358.556 157, 353 157 C 347.444 157, 346 157.310, 346 158.500 M 90 295 C 90 365.033, 90.224 422.109, 90.497 421.836 C 91.156 421.177, 91.169 168.836, 90.510 168.177 C 90.230 167.896, 90 224.967, 90 295 M 17.193 178.250 L 17.385 185.500 17.743 179.169 C 18.069 173.386, 18.247 172.951, 19.800 174.152 C 21.082 175.142, 21.031 174.916, 19.595 173.233 C 18.547 172.005, 17.535 171, 17.345 171 C 17.155 171, 17.087 174.262, 17.193 178.250 M 482.415 172.362 C 482.127 173.111, 482.035 176.374, 482.211 179.612 L 482.530 185.500 483.015 178.248 C 483.502 170.971, 483.385 169.832, 482.415 172.362 M 144.250 183.641 C 141.014 185.002, 143.692 186, 150.583 186 C 156.203 186, 158.060 185.676, 157.754 184.750 C 157.334 183.477, 146.713 182.604, 144.250 183.641 M 21.784 186.738 C 24.689 186.941, 29.189 186.939, 31.784 186.734 C 34.378 186.528, 32 186.363, 26.500 186.365 C 21 186.368, 18.878 186.536, 21.784 186.738 M 140 198.369 C 140 199.722, 141.195 200, 147 200 C 151 200, 154 199.571, 154 199 C 154 198.450, 152.537 197.995, 150.750 197.989 C 148.963 197.983, 145.813 197.699, 143.750 197.358 C 140.696 196.853, 140 197.041, 140 198.369 M 445.437 201.250 L 442.500 204.500 445.750 201.563 C 447.538 199.948, 449 198.485, 449 198.313 C 449 197.540, 448.175 198.221, 445.437 201.250 M 434.162 210.328 C 431.984 212.646, 431.976 212.811, 432.250 249.078 L 432.526 285.500 432.763 249.064 C 432.996 213.192, 433.034 212.593, 435.174 210.314 C 436.370 209.042, 437.124 208, 436.849 208 C 436.574 208, 435.364 209.048, 434.162 210.328 M 67.461 256.500 C 67.461 281.800, 67.591 292.007, 67.749 279.181 C 67.908 266.356, 67.907 245.656, 67.749 233.181 C 67.590 220.707, 67.461 231.200, 67.461 256.500 M 170.070 223.083 C 170.109 229.912, 170.446 236.272, 170.820 237.217 C 171.194 238.161, 171.421 232.832, 171.325 225.375 C 171.229 217.918, 170.891 211.558, 170.575 211.242 C 170.259 210.925, 170.032 216.254, 170.070 223.083 M 187.820 215.250 C 187.594 216.837, 186.719 217.590, 184.846 217.807 C 182.482 218.081, 182.154 218.600, 181.839 222.557 L 181.486 227 188.243 227 C 194.042 227, 194.989 227.248, 194.921 228.750 C 194.874 229.795, 194.639 229.997, 194.338 229.250 C 194.008 228.432, 191.614 228, 187.417 228 L 181 228 181 243 L 181 258 188.968 258 L 196.937 258 197.253 246.250 C 197.488 237.553, 197.626 239.372, 197.785 253.250 C 197.903 263.563, 198.370 272, 198.822 272 C 199.558 272, 199.496 253.974, 198.676 229.695 C 198.401 221.542, 198.178 220.717, 195.674 218.565 C 193.933 217.069, 193.192 215.665, 193.592 214.621 C 194.081 213.346, 193.566 213, 191.177 213 C 188.788 213, 188.071 213.481, 187.820 215.250 M 93.418 220.352 C 92.207 223.509, 93.653 225.532, 99.010 228.170 C 106.052 231.638, 107.215 231.674, 106.816 228.411 C 106.403 225.024, 94.397 217.803, 93.418 220.352 M 353 226.500 C 353 227.679, 354.389 228, 359.500 228 C 364.611 228, 366 227.679, 366 226.500 C 366 225.321, 364.611 225, 359.500 225 C 354.389 225, 353 225.321, 353 226.500 M 134 234.500 C 134 235.708, 135.556 236, 142 236 C 148.444 236, 150 235.708, 150 234.500 C 150 233.292, 148.444 233, 142 233 C 135.556 233, 134 233.292, 134 234.500 M 308 234 C 308 234.948, 309.088 235.250, 312.500 235.250 C 316.525 235.250, 318 234.915, 318 234 C 318 233.450, 315.750 233, 313 233 C 310.250 233, 308 233.450, 308 234 M 303.360 243 C 303.360 248.225, 303.529 250.363, 303.735 247.750 C 303.941 245.137, 303.941 240.863, 303.735 238.250 C 303.529 235.637, 303.360 237.775, 303.360 243 M 47.003 241.250 L 47.007 245.500 53.753 248.258 C 62.777 251.946, 63.180 251.882, 62.807 246.823 C 62.502 242.668, 62.462 242.630, 55.598 239.823 C 51.802 238.270, 48.314 237, 47.848 237 C 47.382 237, 47.001 238.912, 47.003 241.250 M 185.500 240 C 185.122 240.612, 186.676 241, 189.500 241 C 192.324 241, 193.878 240.612, 193.500 240 C 193.160 239.450, 191.360 239, 189.500 239 C 187.640 239, 185.840 239.450, 185.500 240 M 444.750 243.229 L 438 246.286 438 250.643 C 438 253.039, 438.254 255, 438.566 255 C 438.877 255, 442.505 253.441, 446.628 251.536 L 454.125 248.072 453.813 244.363 C 453.641 242.324, 453.050 240.546, 452.500 240.414 C 451.950 240.281, 448.462 241.548, 444.750 243.229 M 479.768 241.725 C 481.565 241.947, 484.265 241.943, 485.768 241.715 C 487.271 241.486, 485.800 241.304, 482.500 241.310 C 479.200 241.315, 477.971 241.502, 479.768 241.725 M 402 245.403 C 395.148 247.738, 393 249.232, 393 251.661 C 393 254.535, 393.773 254.555, 401.147 251.866 C 406.426 249.941, 407 249.451, 407 246.866 C 407 243.706, 406.989 243.702, 402 245.403 M 182 255 C 182 255.550, 184.250 256, 187 256 C 189.750 256, 192 255.550, 192 255 C 192 254.450, 189.750 254, 187 254 C 184.250 254, 182 254.450, 182 255 M 445.561 268.585 C 441.763 269.913, 438.508 271, 438.328 271 C 438.148 271, 438 272.800, 438 275 C 438 277.200, 438.337 279.001, 438.750 279.003 C 439.163 279.005, 442.762 278.039, 446.750 276.857 L 454 274.709 454 270.913 C 454 268.826, 453.655 266.905, 453.233 266.644 C 452.812 266.384, 449.359 267.257, 445.561 268.585 M 144.006 267.682 C 144.010 268.132, 145.360 269.267, 147.006 270.203 C 150.859 272.396, 150.855 271.745, 147 269 C 145.350 267.825, 144.003 267.232, 144.006 267.682 M 348.695 272.522 L 342 278.044 342.232 303.272 L 342.463 328.500 342.750 303.581 C 342.939 287.051, 343.413 278.207, 344.156 277.312 C 344.773 276.569, 347.959 273.945, 351.238 271.481 C 354.516 269.016, 356.791 267, 356.294 267 C 355.796 267, 352.377 269.485, 348.695 272.522 M 301.978 273.567 C 301.330 275.529, 301.071 277.404, 301.400 277.734 C 301.730 278.063, 302.045 277.471, 302.100 276.417 C 302.178 274.904, 302.379 275.027, 303.050 277 C 303.782 279.153, 303.875 278.973, 303.721 275.701 C 303.607 273.276, 304.077 271.563, 305.021 270.966 C 306.282 270.168, 306.254 270.028, 304.828 270.015 C 303.790 270.006, 302.708 271.355, 301.978 273.567 M 356.355 280.500 C 356.352 285.450, 356.521 287.601, 356.731 285.280 C 356.940 282.959, 356.943 278.909, 356.736 276.280 C 356.530 273.651, 356.358 275.550, 356.355 280.500 M 176 274.443 C 176 275.626, 177.101 276, 180.583 276 C 186.485 276, 186.139 273.632, 180.172 273.193 C 176.930 272.954, 176 273.232, 176 274.443 M 206 278 C 206 278.550, 207.125 279, 208.500 279 C 209.875 279, 211 278.550, 211 278 C 211 277.450, 209.875 277, 208.500 277 C 207.125 277, 206 277.450, 206 278 M 315 278 C 315 278.550, 317.025 279, 319.500 279 C 321.975 279, 324 278.550, 324 278 C 324 277.450, 321.975 277, 319.500 277 C 317.025 277, 315 277.450, 315 278 M 144.272 282 C 144.272 284.475, 144.467 285.488, 144.706 284.250 C 144.944 283.012, 144.944 280.988, 144.706 279.750 C 144.467 278.512, 144.272 279.525, 144.272 282 M 157.382 289.500 C 157.384 296.100, 157.546 298.670, 157.741 295.211 C 157.937 291.752, 157.936 286.352, 157.738 283.211 C 157.540 280.070, 157.380 282.900, 157.382 289.500 M 47 283.979 C 47 288.688, 48.388 289.558, 57.630 290.644 L 63.138 291.292 62.819 287.434 C 62.525 283.881, 62.184 283.486, 58.500 282.436 C 56.300 281.808, 52.813 280.983, 50.750 280.602 L 47 279.909 47 283.979 M 166 282.414 C 166 283.265, 167.146 284.250, 168.547 284.601 C 173.292 285.792, 173.019 282.986, 168.250 281.545 C 166.593 281.044, 166 281.273, 166 282.414 M 302.842 283.750 C 302.756 284.712, 302.725 286.175, 302.773 286.999 C 302.821 287.824, 302.217 288.859, 301.430 289.299 C 299.528 290.363, 299.606 292, 301.559 292 C 302.416 292, 302.923 292.337, 302.684 292.750 C 302.446 293.163, 302.606 294.400, 303.041 295.500 C 303.524 296.723, 303.801 294.491, 303.754 289.750 C 303.682 282.609, 303.219 279.562, 302.842 283.750 M 326.336 290 C 326.336 294.125, 326.513 295.813, 326.728 293.750 C 326.944 291.688, 326.944 288.313, 326.728 286.250 C 326.513 284.188, 326.336 285.875, 326.336 290 M 205 286 C 205 286.550, 206.350 287, 208 287 C 209.650 287, 211 286.550, 211 286 C 211 285.450, 209.650 285, 208 285 C 206.350 285, 205 285.450, 205 286 M 289 287 C 289 287.550, 290.548 288, 292.441 288 C 294.334 288, 296.160 287.550, 296.500 287 C 296.873 286.396, 295.510 286, 293.059 286 C 290.827 286, 289 286.450, 289 287 M 187.997 307.749 L 188.493 325.500 188.772 309.118 L 189.051 292.736 191.275 294.602 C 192.499 295.629, 192.178 295.013, 190.563 293.234 C 188.948 291.455, 187.598 289.999, 187.563 289.999 C 187.528 289.998, 187.724 297.986, 187.997 307.749 M 312.199 310.250 C 312.398 330.513, 312.751 328.133, 313.240 303.248 C 313.383 295.960, 313.163 289.997, 312.750 289.998 C 312.337 289.999, 312.089 299.113, 312.199 310.250 M 356.286 295.500 C 356.294 298.250, 356.488 299.256, 356.718 297.736 C 356.947 296.216, 356.941 293.966, 356.704 292.736 C 356.467 291.506, 356.279 292.750, 356.286 295.500 M 144.336 301.500 C 144.336 306.450, 144.513 308.812, 144.729 306.748 L 145.121 302.996 149.162 303.642 C 152.760 304.217, 153.163 304.081, 152.843 302.394 C 152.581 301.017, 151.478 300.416, 148.799 300.193 C 145.356 299.906, 145.088 299.643, 144.725 296.193 C 144.511 294.162, 144.336 296.550, 144.336 301.500 M 307.575 294.918 C 306.569 296.028, 306.026 297.816, 306.283 299.168 L 306.728 301.500 306.864 299.079 C 306.939 297.747, 307.745 295.835, 308.655 294.829 C 309.565 293.823, 310.085 293, 309.810 293 C 309.535 293, 308.529 293.863, 307.575 294.918 M 201.015 297.750 C 201.025 298.886, 201.290 299.093, 201.769 298.340 C 202.174 297.702, 203.855 296.982, 205.503 296.740 C 208.221 296.341, 208.151 296.286, 204.750 296.150 C 201.783 296.031, 201.003 296.365, 201.015 297.750 M 280 297 C 280 297.550, 280.675 298, 281.500 298 C 282.325 298, 283 297.550, 283 297 C 283 296.450, 282.325 296, 281.500 296 C 280.675 296, 280 296.450, 280 297 M 125.728 297.722 C 127.503 297.943, 130.653 297.946, 132.728 297.730 C 134.802 297.513, 133.350 297.333, 129.500 297.328 C 125.650 297.324, 123.952 297.501, 125.728 297.722 M 283.812 299.250 C 283.581 300.488, 283.708 302.625, 284.096 304 C 284.637 305.918, 284.824 305.394, 284.900 301.750 C 285.006 296.693, 284.506 295.543, 283.812 299.250 M 368.250 297.728 C 370.313 297.944, 373.688 297.944, 375.750 297.728 C 377.813 297.513, 376.125 297.336, 372 297.336 C 367.875 297.336, 366.188 297.513, 368.250 297.728 M 119.185 310.809 C 119.083 317.579, 119.390 322.877, 119.866 322.583 C 120.342 322.289, 120.515 320.912, 120.249 319.524 L 119.767 317 128.383 317 C 136.333 317, 137 316.845, 137 315 C 137 313.157, 136.333 313, 128.500 313 C 121.712 313, 120 312.706, 120 311.539 C 120 310.394, 121.895 310.006, 128.750 309.745 L 137.500 309.411 128.802 309.206 L 120.105 309 119.737 303.750 C 119.535 300.863, 119.287 304.039, 119.185 310.809 M 222.890 301.250 C 222.719 303.384, 222.719 303.829, 222.875 314.667 C 223.044 326.366, 224.108 324.666, 224.165 312.607 C 224.204 304.410, 224.452 302.988, 225.855 302.921 C 227.224 302.855, 227.249 302.746, 226 302.271 C 225.175 301.957, 224.169 301.205, 223.765 300.600 C 223.304 299.910, 222.978 300.152, 222.890 301.250 M 294.250 300.689 C 295.212 300.941, 296.788 300.941, 297.750 300.689 C 298.712 300.438, 297.925 300.232, 296 300.232 C 294.075 300.232, 293.288 300.438, 294.250 300.689 M 432.355 309.500 C 432.352 314.450, 432.521 316.601, 432.731 314.280 C 432.940 311.959, 432.943 307.909, 432.736 305.280 C 432.530 302.651, 432.358 304.550, 432.355 309.500 M 174 303 C 174 303.550, 175.800 304, 178 304 C 180.200 304, 182 303.550, 182 303 C 182 302.450, 180.200 302, 178 302 C 175.800 302, 174 302.450, 174 303 M 157.300 308 C 157.300 311.025, 157.487 312.262, 157.716 310.750 C 157.945 309.238, 157.945 306.762, 157.716 305.250 C 157.487 303.738, 157.300 304.975, 157.300 308 M 67.272 308 C 67.272 310.475, 67.467 311.488, 67.706 310.250 C 67.944 309.012, 67.944 306.988, 67.706 305.750 C 67.467 304.512, 67.272 305.525, 67.272 308 M 209.402 319 C 209.402 327.525, 209.556 331.012, 209.743 326.750 C 209.931 322.488, 209.931 315.512, 209.743 311.250 C 209.556 306.988, 209.402 310.475, 209.402 319 M 290.809 304.750 C 290.639 305.163, 290.742 312.700, 291.039 321.500 L 291.577 337.500 291.789 320.750 C 291.979 305.671, 291.778 302.397, 290.809 304.750 M 216.168 310.719 C 216.027 315.108, 216.252 315.841, 217.584 315.329 C 218.505 314.976, 218.745 314.461, 218.158 314.098 C 217.603 313.755, 216.966 311.680, 216.743 309.487 C 216.376 305.891, 216.320 306.012, 216.168 310.719 M 445.500 307.654 C 438.198 308.615, 438 308.760, 438 313.163 L 438 317.287 445.228 316.615 C 449.204 316.246, 452.836 315.564, 453.301 315.099 C 453.766 314.634, 454 312.735, 453.823 310.877 C 453.477 307.258, 452.216 306.770, 445.500 307.654 M 197.500 309 C 197.840 309.550, 199.018 310, 200.118 310 C 201.218 310, 201.840 309.550, 201.500 309 C 201.160 308.450, 199.982 308, 198.882 308 C 197.782 308, 197.160 308.450, 197.500 309 M 367.728 309.722 C 369.503 309.943, 372.653 309.946, 374.728 309.730 C 376.802 309.513, 375.350 309.333, 371.500 309.328 C 367.650 309.324, 365.952 309.501, 367.728 309.722 M 94 320.500 C 94 322.910, 94.233 323, 100.500 323 C 106.767 323, 107 322.910, 107 320.500 C 107 318.090, 106.767 318, 100.500 318 C 94.233 318, 94 318.090, 94 320.500 M 216 320 C 216 320.550, 216.675 321, 217.500 321 C 218.325 321, 219 320.550, 219 320 C 219 319.450, 218.325 319, 217.500 319 C 216.675 319, 216 319.450, 216 320 M 295 321 C 295 321.550, 295.900 322, 297 322 C 298.100 322, 299 321.550, 299 321 C 299 320.450, 298.100 320, 297 320 C 295.900 320, 295 320.450, 295 321 M 202 324 C 202 324.550, 203.125 325, 204.500 325 C 205.875 325, 207 324.550, 207 324 C 207 323.450, 205.875 323, 204.500 323 C 203.125 323, 202 323.450, 202 324 M 174 332.696 C 174 333.551, 175.378 334, 178 334 C 180.936 334, 182 333.590, 182 332.459 C 182 331.290, 181.038 330.976, 178 331.155 C 175.498 331.303, 174 331.880, 174 332.696 M 319 332.500 C 319 333.583, 320.111 334, 323 334 C 325.889 334, 327 333.583, 327 332.500 C 327 331.417, 325.889 331, 323 331 C 320.111 331, 319 331.417, 319 332.500 M 286.300 337 C 286.300 340.025, 286.487 341.262, 286.716 339.750 C 286.945 338.238, 286.945 335.762, 286.716 334.250 C 286.487 332.738, 286.300 333.975, 286.300 337 M 432.320 342 C 432.320 345.575, 432.502 347.038, 432.723 345.250 C 432.945 343.462, 432.945 340.538, 432.723 338.750 C 432.502 336.962, 432.320 338.425, 432.320 342 M 49.250 338.706 C 47.356 339.071, 47 339.783, 47 343.213 L 47 347.287 54.126 346.625 C 58.045 346.261, 61.645 345.720, 62.126 345.422 C 62.607 345.125, 63 343.334, 63 341.441 L 63 338 57.250 338.136 C 54.087 338.211, 50.487 338.467, 49.250 338.706 M 438 341.831 C 438 346.466, 438.421 346.703, 447.500 347.183 L 453.500 347.500 453.823 344.123 C 454 342.265, 453.775 340.398, 453.323 339.974 C 452.870 339.549, 449.238 338.886, 445.250 338.499 L 438 337.797 438 341.831 M 220.500 341.450 C 217.966 343.512, 217.839 343.806, 219.685 343.346 C 221.919 342.788, 226.043 338.996, 224.405 339.005 C 223.907 339.008, 222.150 340.108, 220.500 341.450 M 123.750 345.732 C 126.087 345.943, 129.912 345.943, 132.250 345.732 C 134.588 345.522, 132.675 345.349, 128 345.349 C 123.325 345.349, 121.412 345.522, 123.750 345.732 M 214 345.839 C 214 346.301, 212.850 347.203, 211.444 347.844 C 210.038 348.484, 209.164 349.457, 209.503 350.004 C 209.841 350.552, 209.218 351, 208.118 351 C 207.018 351, 205.803 351.510, 205.417 352.134 C 204.931 352.920, 205.681 353.127, 207.858 352.808 C 209.586 352.554, 211 352.718, 211 353.173 C 211 354.098, 209.884 354.275, 205.495 354.046 C 203.397 353.936, 201.284 354.901, 198.495 357.241 C 196.298 359.084, 192.285 362.034, 189.579 363.796 L 184.657 367 189.147 367 C 192.837 367, 194.317 366.394, 197.458 363.600 C 200.763 360.660, 201.024 360.135, 199.390 359.716 C 198.030 359.368, 198.255 359.199, 200.191 359.116 C 201.671 359.052, 203.159 358.552, 203.497 358.005 C 203.835 357.458, 205.099 356.528, 206.306 355.938 C 208.834 354.701, 204.858 358.588, 194.987 367 C 189.046 372.064, 180.870 379.358, 177.052 383 C 176.188 383.825, 173.909 385.758, 171.990 387.295 C 168.591 390.016, 168.568 390.081, 171.111 389.795 C 173.573 389.517, 177.427 386.106, 207.355 357.724 C 211.285 353.997, 213.713 351.233, 212.750 351.581 C 211.756 351.940, 211 351.736, 211 351.107 C 211 350.498, 211.675 349.944, 212.500 349.875 C 213.325 349.806, 214.450 349.637, 215 349.500 C 215.550 349.363, 216.280 349.194, 216.622 349.125 C 216.965 349.056, 216.627 348.239, 215.872 347.308 C 215.091 346.344, 215.008 345.921, 215.681 346.324 C 216.330 346.714, 217.144 346.575, 217.490 346.016 C 217.838 345.454, 217.199 345, 216.059 345 C 214.927 345, 214 345.378, 214 345.839 M 368.250 345.728 C 370.313 345.944, 373.688 345.944, 375.750 345.728 C 377.813 345.513, 376.125 345.336, 372 345.336 C 367.875 345.336, 366.188 345.513, 368.250 345.728 M 284.333 348.608 C 284.333 349.312, 284.596 349.861, 284.917 349.826 C 286.746 349.629, 288 350.130, 288 351.059 C 288 351.641, 287.438 351.828, 286.750 351.474 C 286.063 351.120, 286.956 352.206, 288.736 353.889 C 290.517 355.571, 292.582 356.714, 293.326 356.428 C 294.071 356.143, 295.257 356.604, 295.962 357.454 C 296.668 358.305, 298.652 358.984, 300.372 358.964 L 303.500 358.928 300.534 356.505 C 298.290 354.670, 296.658 354.169, 293.825 354.442 C 291.554 354.660, 289.652 354.286, 288.991 353.490 C 288.112 352.430, 288.731 352.272, 292.201 352.668 C 295.415 353.035, 296.122 352.891, 295 352.095 C 294.175 351.510, 292.375 350.992, 291 350.945 C 288.815 350.870, 288.743 350.764, 290.427 350.105 C 292.329 349.359, 292.329 349.339, 290.427 348.525 C 287.307 347.188, 284.333 347.229, 284.333 348.608 M 120 350.960 C 120 352.855, 120.610 353, 128.573 353 C 136.199 353, 137.110 352.807, 136.812 351.250 C 136.532 349.781, 135.153 349.453, 128.239 349.210 C 120.517 348.937, 120 349.047, 120 350.960 M 299.243 363.750 C 300.975 365.538, 302.986 367, 303.712 367 C 304.438 367, 303.562 365.603, 301.766 363.895 L 298.500 360.791 302.478 363.895 C 305.586 366.321, 307.442 367, 310.964 367 L 315.473 367 310.218 363.461 C 305.846 360.516, 304.219 359.971, 300.529 360.211 L 296.095 360.500 299.243 363.750 M 380.272 364 C 380.272 366.475, 380.467 367.488, 380.706 366.250 C 380.944 365.012, 380.944 362.988, 380.706 361.750 C 380.467 360.512, 380.272 361.525, 380.272 364 M 178.327 371.625 C 171.114 377.042, 171.123 377.004, 177.050 376.955 C 182.063 376.914, 182.899 376.553, 187.473 372.455 L 192.445 368 187.799 368 C 184.013 368, 182.260 368.671, 178.327 371.625 M 307.219 370.733 C 309.975 373.667, 311.905 373.697, 309.405 370.767 C 307.520 368.558, 307.521 368.549, 309.500 369.965 C 310.600 370.752, 312.898 372.682, 314.607 374.255 C 317.336 376.767, 318.353 377.077, 322.980 376.807 L 328.246 376.500 322.427 372.198 C 316.956 368.153, 316.263 367.913, 310.849 368.181 L 305.090 368.466 307.219 370.733 M 53.250 376.219 L 47 378.278 47 382.558 L 47 386.839 50.750 385.853 C 52.813 385.311, 56.413 384.162, 58.750 383.298 C 62.746 381.822, 63 381.497, 63 377.864 C 63 373.291, 62.433 373.195, 53.250 376.219 M 311 374.599 C 311 375.310, 316.981 381, 317.730 381 C 318.015 381, 320.030 383.025, 322.209 385.500 C 325.074 388.755, 326.907 389.991, 328.835 389.967 L 331.500 389.933 329 387.894 C 320.894 381.281, 319.058 379.609, 319.460 379.206 C 319.707 378.960, 322.741 381.286, 326.204 384.375 L 332.500 389.991 339.309 389.996 C 343.054 389.998, 345.873 389.603, 345.573 389.119 C 345.274 388.634, 341.590 385.904, 337.388 383.053 C 330.113 378.117, 329.466 377.880, 323.873 378.109 C 319.016 378.307, 317.599 377.972, 315.685 376.174 C 313.501 374.122, 311 373.281, 311 374.599 M 438 377.928 C 438 381.777, 438.112 381.898, 443.538 383.928 C 446.583 385.068, 449.958 386, 451.038 386 C 452.945 386, 453.046 385.651, 452.994 379.250 C 452.988 378.477, 441.476 374.113, 439.250 374.041 C 438.455 374.015, 438 375.431, 438 377.928 M 143.569 397.042 C 132.355 405.413, 132.431 405, 142.094 405 L 150.588 405 154.844 401.032 C 157.185 398.849, 160.755 395.699, 162.778 394.032 L 166.456 391 158.978 391.061 L 151.500 391.121 143.569 397.042 M 158.892 398.637 L 150.378 406.274 140.827 406.081 L 131.277 405.888 116.718 416.694 C 108.711 422.637, 101.336 428.036, 100.330 428.691 C 98.855 429.651, 100.732 429.893, 110 429.937 L 121.500 429.992 126.694 425.746 C 129.550 423.411, 135.625 418.146, 140.194 414.048 C 144.762 409.949, 146.925 408.292, 145 410.366 L 141.500 414.138 145.500 413.819 C 148.175 413.606, 149.409 413.061, 149.225 412.176 C 149.074 411.447, 149.299 411.063, 149.725 411.322 C 150.151 411.580, 155.450 407.128, 161.500 401.428 C 170.999 392.479, 172.152 391.060, 169.953 391.032 C 168.165 391.010, 164.873 393.273, 158.892 398.637 M 331.070 394.005 C 332.956 395.658, 338.358 400.868, 343.073 405.582 C 350.907 413.415, 351.941 414.125, 355.073 413.827 L 358.500 413.500 352 408.104 C 348.425 405.136, 342.631 400.074, 339.124 396.854 C 334.826 392.908, 331.915 391, 330.194 391 C 327.650 391, 327.653 391.012, 331.070 394.005 M 341.844 398.042 L 349.188 405 357.653 405 C 362.309 405, 365.877 404.610, 365.583 404.134 C 365.288 403.657, 361.248 400.507, 356.605 397.134 C 348.194 391.023, 348.137 391, 341.331 391.042 L 334.500 391.084 341.844 398.042 M 359.150 413.250 C 363.640 417.238, 369.811 422.637, 372.863 425.250 L 378.413 430 389.957 429.941 C 399.275 429.894, 401.142 429.653, 399.643 428.691 C 398.622 428.036, 391.283 422.663, 383.334 416.750 L 368.882 406 359.935 406 L 350.987 406 359.150 413.250 M 135.946 418.621 C 134.051 420.613, 129.954 424.325, 126.841 426.871 C 123.729 429.417, 117.178 435.100, 112.283 439.500 C 107.389 443.900, 102.060 448.520, 100.442 449.766 L 97.500 452.032 103.710 451.660 C 110.727 451.240, 108.435 453.033, 134.920 427.257 L 147.500 415.013 143.446 415.007 C 140.084 415.001, 138.804 415.618, 135.946 418.621 M 371 432.982 C 384.804 446.392, 390.309 451.112, 392.685 451.576 C 394.437 451.918, 396.349 451.902, 396.935 451.540 C 397.521 451.178, 398 451.359, 398 451.941 C 398 452.523, 396.564 453, 394.809 453 C 391.812 453, 393.067 454.418, 415.559 476.453 L 439.500 499.905 447.750 499.953 C 452.288 499.979, 456 499.822, 456 499.604 C 456 499.386, 451.387 495.256, 445.750 490.425 C 440.113 485.594, 432.535 478.910, 428.910 475.571 C 414.124 461.949, 403.008 452.998, 400.795 452.930 C 398.695 452.865, 398.665 452.795, 400.445 452.098 C 402.197 451.413, 402.033 451.094, 398.785 448.887 C 395.401 446.588, 378.750 432.045, 365.996 420.250 C 361.158 415.775, 359.742 415.001, 356.410 415.005 L 352.500 415.010 371 432.982 M 94 433.165 C 92.625 434.318, 84.075 440.567, 75 447.050 C 65.925 453.533, 57.600 459.534, 56.500 460.387 C 54.669 461.806, 55.828 461.939, 70.247 461.968 L 85.994 462 93.247 455.219 C 97.236 451.489, 102.075 447.250, 104 445.798 C 105.925 444.346, 110.425 440.433, 114 437.103 L 120.500 431.048 108.500 431.057 C 97.782 431.066, 96.233 431.291, 94 433.165 M 87.918 460.805 C 83.198 465.037, 72.868 474.125, 64.961 481 C 57.055 487.875, 48.991 494.950, 47.043 496.723 L 43.500 499.946 51.947 499.973 L 60.395 500 71.544 489 C 77.676 482.950, 82.424 477.998, 82.096 477.996 C 81.768 477.994, 82.850 477.142, 84.500 476.103 C 86.150 475.063, 92.217 469.440, 97.982 463.606 L 108.464 453 102.482 453.055 L 96.500 453.110 87.918 460.805 M 419 465.794 C 420.925 467.278, 425.200 470.999, 428.500 474.063 C 431.800 477.126, 439.758 484.215, 446.183 489.816 L 457.867 500 477.523 500 L 497.180 500 491.901 495.827 C 482.974 488.771, 473.947 482.914, 472.950 483.531 C 472.427 483.854, 472 483.659, 472 483.098 C 472 482.537, 470.988 481.135, 469.750 479.982 C 468.512 478.829, 467.480 477.349, 467.455 476.693 C 467.430 476.037, 466.833 475.624, 466.130 475.775 C 465.426 475.926, 463.197 474.793, 461.175 473.257 C 459.154 471.720, 454.992 468.784, 451.927 466.732 L 446.354 463 430.927 463.047 L 415.500 463.094 419 465.794" stroke="none" fill="#353e48" fill-rule="evenodd"/></svg>